<svg xmlns="http://www.w3.org/2000/svg" viewBox="0 0 192.39 38.44"><defs><style>.cls-1{fill:#231f20;}</style></defs><title>Asset 1</title><g id="Layer_2" data-name="Layer 2"><g id="Layer_1-2" data-name="Layer 1"><path class="cls-1" d="M19.21,8.34h-9V32.43H9.08V8.34H0v-1H19.21Z"/><path class="cls-1" d="M39.13,20V32.43H38.06V20.12a5.18,5.18,0,0,0-5.49-5.31c-3.2,0-5.35,2.12-6.68,4.52v13.1H24.81V7.3h1.08V17.79a7.9,7.9,0,0,1,6.75-4A6.14,6.14,0,0,1,39.13,20Z"/><path class="cls-1" d="M61.61,23.1H46c.07,5.53,3.45,8.65,9,8.65a15.11,15.11,0,0,0,5.67-1.33v1.22a15.69,15.69,0,0,1-5.67,1.15c-6.21,0-10.05-3.7-10.05-9.8,0-5.28,3.73-9.23,8.8-9.23,4.88,0,7.93,3.52,7.93,8.94ZM46,22.13H60.53c-.22-4.52-2.8-7.4-6.86-7.4A7.65,7.65,0,0,0,46,22.13Z"/><path class="cls-1" d="M66.1,30.78V26.33c3.05,1.9,6.46,3.12,9,3.12,2.84,0,4.67-1.62,4.67-3.77,0-6.25-13.46-2.87-13.46-11.67,0-4.17,3.63-7.07,9.08-7.07a27.15,27.15,0,0,1,7.72,1.22v4.09a20.17,20.17,0,0,0-7.9-2c-2.91,0-4.74,1.47-4.74,3.48,0,5.71,13.46,2.48,13.46,11.49,0,4.27-3.37,7.58-8.72,7.58A23.52,23.52,0,0,1,66.1,30.78Z"/><path class="cls-1" d="M105.88,24.21H92.2c.36,3.84,2.55,5.53,6.57,5.53a17.1,17.1,0,0,0,6-1.4v3.41a21.37,21.37,0,0,1-6.28,1c-6.46,0-10.12-3.63-10.12-9.87,0-5.42,3.73-9.16,9.08-9.16,5.1,0,8.4,3.66,8.4,9ZM92.2,21.59h10.09c-.39-3-1.94-5-4.81-5S92.63,18.5,92.2,21.59Z"/><path class="cls-1" d="M128,14.12V32.43h-3.77V30a7.68,7.68,0,0,1-6,2.84c-5.1,0-8.51-4.06-8.51-9.51s3.45-9.51,8.51-9.51a7.68,7.68,0,0,1,6,2.84V14.12Zm-3.77,12.6V19.94A6.31,6.31,0,0,0,119.16,17c-3.37,0-5.71,2.69-5.71,6.25s2.37,6.32,5.82,6.32A6.12,6.12,0,0,0,124.22,26.73Z"/><path class="cls-1" d="M145.26,13.76v3.95c-3.73,0-5.89.65-7.36,2.66V32.43h-3.81V14.12h3.81V18C139.08,15.74,141,13.76,145.26,13.76Z"/><path class="cls-1" d="M147.66,23.24c0-5.53,4.24-9.48,10.16-9.48a22.66,22.66,0,0,1,5,.61V18a13.74,13.74,0,0,0-4.88-1,6.15,6.15,0,0,0-6.46,6.25,6.24,6.24,0,0,0,6.5,6.32,14.36,14.36,0,0,0,4.85-1v3.52a19.35,19.35,0,0,1-5,.68C151.94,32.79,147.66,28.84,147.66,23.24Z"/><path class="cls-1" d="M184.29,20.26V32.43h-3.77V20.91a3.36,3.36,0,0,0-3.59-3.7c-1.87,0-3.52,1.22-5.1,3.12v12.1h-3.77V7.3h3.77v9.95a7.23,7.23,0,0,1,6.07-3.48C181.38,13.76,184.29,16,184.29,20.26Z"/><rect class="cls-1" x="171.95" y="17.99" width="38.44" height="2.45" transform="translate(210.39 -171.95) rotate(90)"/></g></g></svg>