<svg xmlns="http://www.w3.org/2000/svg" viewBox="0 0 310.42 300.12"><defs><style>.cls-1{fill:#2ab67a;}.cls-2,.cls-3{fill:#010101;}.cls-3{stroke:#231f20;stroke-miterlimit:10;}.cls-4{fill:#231f20;}</style></defs><title>Asset 3</title><g id="Layer_2" data-name="Layer 2"><g id="Layer_1-2" data-name="Layer 1"><path class="cls-1" d="M144.3,85.7a2.25,2.25,0,0,0,2.25-2.25V75A2.25,2.25,0,0,0,142,75v8.42A2.25,2.25,0,0,0,144.3,85.7Z"/><path class="cls-2" d="M167.85,97A2.25,2.25,0,0,0,164,94.67c-3.21,5.34-9.61,5.12-9.9,5.11a2.25,2.25,0,0,0-.24,4.5h.44C156.2,104.29,163.75,103.84,167.85,97Z"/><path class="cls-2" d="M157.51,37.88a29.14,29.14,0,0,1,3.72.24l.29,0a2.25,2.25,0,0,0,.29-4.49,33.64,33.64,0,0,0-4.29-.28,2.25,2.25,0,1,0,0,4.51Z"/><path class="cls-2" d="M168.89,40.2a30,30,0,0,1,16.26,16.64,2.25,2.25,0,1,0,4.2-1.63A34.49,34.49,0,0,0,170.65,36a2.25,2.25,0,1,0-1.75,4.15Z"/><path class="cls-2" d="M233.1,133.58h-9.22a11.77,11.77,0,0,1,0-23.54,2.25,2.25,0,1,0,0-4.51,16.28,16.28,0,1,0,0,32.56h9.22a41.07,41.07,0,0,1,41,41v1.61a41,41,0,0,1-80.57,10.89h12.65a2.25,2.25,0,0,0,2.25-2.25V167.1a2.25,2.25,0,0,0-2.25-2.25h-6.13v-99a43,43,0,0,0-40.74-42.93V2.25a2.25,2.25,0,0,0-4.51,0V22.88a43,43,0,0,0-40.74,42.93v99H108a2.25,2.25,0,0,0-2.25,2.25v22.25A2.25,2.25,0,0,0,108,191.6h13.14A33.6,33.6,0,0,1,54,189.46v-1.33a33.64,33.64,0,0,1,33.61-33.6H95.2a13.88,13.88,0,0,0,2-27.61,14,14,0,0,0-2-.14,2.25,2.25,0,0,0,0,4.51,9.37,9.37,0,0,1,0,18.73H87.56a38.16,38.16,0,0,0-38.11,38.11v1.33A38.09,38.09,0,0,0,108.93,221c.2-.07,1.27-.81,2.52-1.62a92.49,92.49,0,0,1,28.2-11.62c23.06-5.33,45.79-1.76,67.64,10.61,1.37.78,4.61,2.68,4.87,2.73a45.5,45.5,0,0,0,66.47-40.39v-1.61A45.58,45.58,0,0,0,233.1,133.58ZM118.59,65.81a38.49,38.49,0,0,1,77,0v99H179.42l-2.73-22.3V100.12a13.41,13.41,0,0,0,11.95-13.31V74.56a2.25,2.25,0,0,0-4.35-.82c-.91,2.31-4.1,8.37-7.6,8.5V63.75a15.83,15.83,0,0,0-15.82-15.82H145.39a15.83,15.83,0,0,0-15.82,15.82v2.76c-4.16,3.24-6.75,7.77-6.75,12.78s2.59,9.54,6.75,12.78v14.06h-1.9a2.25,2.25,0,0,0,0,4.51h5.89v5.11a2.25,2.25,0,1,0,4.51,0v-5.11h3.18a15,15,0,0,1,1.61.09v5a2.25,2.25,0,0,0,4.51,0v-3.82a15.41,15.41,0,0,1,7.1,6.26,3.55,3.55,0,0,1,0,3.65,3.71,3.71,0,0,1-3.25,1.9H137.86A2.23,2.23,0,0,0,135.6,126a2.25,2.25,0,0,0,2.25,2.25h.2l-5.5,36.64h-14v-99Zm43.79,87.53a2.25,2.25,0,0,0-2.25,2.25v9.26h-8.33V150.28a2.25,2.25,0,0,0-4.51,0v14.57H137.11L141.28,137h7.81a2.25,2.25,0,1,0,0-4.51H142l.65-4.29h8.62a8.17,8.17,0,0,0,7.17-4.17,8.05,8.05,0,0,0-.05-8.18,20,20,0,0,0-17.1-9.76h-7.17V94.79a26.46,26.46,0,0,0,11,2.34c12.27,0,22.26-8,22.26-17.84s-10-17.84-22.26-17.84a26.46,26.46,0,0,0-11,2.34v0a11.32,11.32,0,0,1,11.31-11.31h15.49a11.32,11.32,0,0,1,11.31,11.31v71.88h-8a2.25,2.25,0,1,0,0,4.51h8v2.54c0,.09,2.7,22.17,2.7,22.17H164.63v-9.26A2.25,2.25,0,0,0,162.38,153.34ZM145.08,66c9.79,0,17.75,6,17.75,13.33s-8,13.33-17.75,13.33-17.75-6-17.75-13.33S135.29,66,145.08,66Zm31.61,20.8c2.9,0,5.42-1.79,7.44-4.09v4.14a8.89,8.89,0,0,1-7.44,8.76Zm-66.49,82.6H204V187.1H110.21Zm28.23,34.07a99.94,99.94,0,0,0-18.65,6.35,37.85,37.85,0,0,0,5.82-18.17h63.28A45.14,45.14,0,0,0,197,208.37,95.57,95.57,0,0,0,138.44,203.42Z"/><path class="cls-3" d="M95.11,91.75H86.59l-4-10H57.23l-4,10H51.91v-5h-6v5h-1.2a4.8,4.8,0,0,0-4.8,4.8v29.37a4.84,4.84,0,0,0,4.83,4.83H95.08a4.84,4.84,0,0,0,4.83-4.83V96.55A4.8,4.8,0,0,0,95.11,91.75Zm2.8,34.17a2.84,2.84,0,0,1-2.83,2.83H44.74a2.84,2.84,0,0,1-2.83-2.83V96.55a2.8,2.8,0,0,1,2.8-2.8h9.88l4-10H81.23l4,10h9.88a2.8,2.8,0,0,1,2.8,2.8Z"/><path class="cls-3" d="M69.91,90.75a18,18,0,1,0,18,18A18,18,0,0,0,69.91,90.75Zm0,34a16,16,0,1,1,16-16A16,16,0,0,1,69.91,124.75Z"/><path class="cls-3" d="M69.91,96.75a12,12,0,1,0,12,12A12,12,0,0,0,69.91,96.75Z"/><path class="cls-3" d="M91.91,101.75a2,2,0,1,1,2-2A2,2,0,0,1,91.91,101.75Z"/><path class="cls-4" d="M4,255.31l.41.47A1.72,1.72,0,0,1,4.84,257a2.14,2.14,0,0,1-.27,1,2,2,0,0,1-.83.8,2.84,2.84,0,0,1-1.39.31A3.06,3.06,0,0,1,0,258.17l.43-.76h0a2.36,2.36,0,0,0,.83.69,2.59,2.59,0,0,0,1.18.26,1.66,1.66,0,0,0,1.1-.37,1.15,1.15,0,0,0,.44-.91,1.13,1.13,0,0,0-.14-.58,1.49,1.49,0,0,0-.5-.46,8.29,8.29,0,0,0-1.08-.54,4,4,0,0,1-1.58-1,1.85,1.85,0,0,1-.47-1.24,1.65,1.65,0,0,1,.61-1.34,2.55,2.55,0,0,1,1.67-.5,2.71,2.71,0,0,1,1.15.25,2.82,2.82,0,0,1,.93.69l-.47.62h0a2.14,2.14,0,0,0-.75-.68,2.21,2.21,0,0,0-1-.19,1.34,1.34,0,0,0-.93.32,1,1,0,0,0-.35.77,1.18,1.18,0,0,0,.15.61,1.58,1.58,0,0,0,.55.5,7.59,7.59,0,0,0,1.15.55Zm-3.56,2,0,0C.38,257.33.39,257.32.46,257.35Zm.11,0s0,0,0,0l-.06,0,0,0,.08,0ZM4,253s0,0,0,0l.06,0,0,0L4,253Zm.16,0-.05,0,0,0C4.16,253.06,4.17,253.08,4.15,253.06Z"/><path class="cls-4" d="M6.93,258.37a2.88,2.88,0,0,1-.73-2.1,3.36,3.36,0,0,1,.34-1.55,2.37,2.37,0,0,1,2.18-1.34,2.11,2.11,0,0,1,1.61.66A2.75,2.75,0,0,1,11,256q0,.13,0,.4H7a2.22,2.22,0,0,0,.56,1.52,1.77,1.77,0,0,0,1.31.52,1.82,1.82,0,0,0,1.42-.61l.48.47a2.36,2.36,0,0,1-1.92.84A2.6,2.6,0,0,1,6.93,258.37Zm3.15-2.66a1.8,1.8,0,0,0-.39-1.22,1.29,1.29,0,0,0-1-.45,1.47,1.47,0,0,0-1,.42,2,2,0,0,0-.55,1.25Z"/><path class="cls-4" d="M13.17,258.37a2.88,2.88,0,0,1-.73-2.1,3.36,3.36,0,0,1,.34-1.55A2.37,2.37,0,0,1,15,253.38a2.11,2.11,0,0,1,1.61.66A2.75,2.75,0,0,1,17.2,256q0,.13,0,.4h-3.9a2.22,2.22,0,0,0,.56,1.52,1.77,1.77,0,0,0,1.31.52,1.82,1.82,0,0,0,1.42-.61l.48.47a2.36,2.36,0,0,1-1.92.84A2.6,2.6,0,0,1,13.17,258.37Zm3.15-2.66a1.8,1.8,0,0,0-.39-1.22,1.29,1.29,0,0,0-1-.45,1.47,1.47,0,0,0-1,.42,2,2,0,0,0-.55,1.25Z"/><path class="cls-4" d="M18.55,253.51h.79v.54a1.55,1.55,0,0,1,.49-.49,1.17,1.17,0,0,1,.62-.19,1,1,0,0,1,.63.23,1,1,0,0,1,.34.58,1.35,1.35,0,0,1,1.24-.8.92.92,0,0,1,.81.39,1.63,1.63,0,0,1,.25,1V259h-.79v-3.89a1.91,1.91,0,0,0-.13-.89.43.43,0,0,0-.38-.2.6.6,0,0,0-.42.2,1.52,1.52,0,0,0-.33.52,1.7,1.7,0,0,0-.13.63V259h-.8v-3.82a2.16,2.16,0,0,0-.13-.91.49.49,0,0,0-.47-.23.56.56,0,0,0-.37.16,1.18,1.18,0,0,0-.31.46,1.78,1.78,0,0,0-.12.68V259h-.79Z"/><path class="cls-4" d="M29.19,256.45a1.2,1.2,0,0,1,.43,1,1.53,1.53,0,0,1-.58,1.23,2.57,2.57,0,0,1-1.69.49,3.3,3.3,0,0,1-2.33-.86l.48-.82h0a2.91,2.91,0,0,0,.77.72,2.08,2.08,0,0,0,1.08.24,1.9,1.9,0,0,0,1-.23.72.72,0,0,0,.37-.64.7.7,0,0,0-.3-.58,3.9,3.9,0,0,0-1.08-.48q-2.06-.59-2.06-1.7a1.18,1.18,0,0,1,.52-1,2.55,2.55,0,0,1,1.49-.37,3.31,3.31,0,0,1,1.25.21,2.7,2.7,0,0,1,.93.65l-.49.6h0a1.73,1.73,0,0,0-.71-.61,2.16,2.16,0,0,0-.94-.22,1.75,1.75,0,0,0-.85.18.55.55,0,0,0-.33.5.7.7,0,0,0,.34.55,4,4,0,0,0,1.21.5A4.17,4.17,0,0,1,29.19,256.45Zm-3.7.92,0,0,0,0S25.48,257.36,25.49,257.36Zm.16,0s0,0-.11,0l0-.06.07,0Zm3.34-2.5,0,0-.06-.06S28.92,254.84,29,254.89Zm.07,0h0l0,0,0,0S29,254.91,29,254.91Z"/><path class="cls-4" d="M37.76,259v-.7h1.62v-6.59H37.84V251h2.42v7.28h1.61v.7Z"/><path class="cls-4" d="M44.26,259v-.7h1.4v-4.09H44.33v-.7h2.2v4.79h1.28v.7Zm1.36-6.82a.59.59,0,0,1-.18-.43.62.62,0,0,1,.17-.44.59.59,0,0,1,.44-.18.64.64,0,0,1,.62.62.58.58,0,0,1-.19.43.61.61,0,0,1-.44.18A.59.59,0,0,1,45.61,252.18Z"/><path class="cls-4" d="M51.68,256.25l-.72.67V259h-.88v-8h1v.08a.32.32,0,0,0-.09.16,1.56,1.56,0,0,0,0,.29V256l2.75-2.54a3.23,3.23,0,0,0,.64.06h.31l-2.3,2.17L55,259l-1.12,0Z"/><path class="cls-4" d="M56.85,258.37a2.88,2.88,0,0,1-.73-2.1,3.36,3.36,0,0,1,.34-1.55,2.37,2.37,0,0,1,2.18-1.34,2.11,2.11,0,0,1,1.61.66,2.75,2.75,0,0,1,.62,1.94q0,.13,0,.4H57a2.22,2.22,0,0,0,.56,1.52,1.77,1.77,0,0,0,1.31.52,1.82,1.82,0,0,0,1.42-.61l.48.47a2.36,2.36,0,0,1-1.92.84A2.6,2.6,0,0,1,56.85,258.37ZM60,255.71a1.8,1.8,0,0,0-.39-1.22,1.29,1.29,0,0,0-1-.45,1.47,1.47,0,0,0-1,.42,2,2,0,0,0-.55,1.25Z"/><path class="cls-4" d="M72.74,254a2.86,2.86,0,0,1,.62,2.08V259h-.94v-.84a1.91,1.91,0,0,1-1.87,1,2.22,2.22,0,0,1-1.43-.41,1.34,1.34,0,0,1-.52-1.1,1.5,1.5,0,0,1,.37-1,2.38,2.38,0,0,1,1-.67,4,4,0,0,1,1.39-.23,9.64,9.64,0,0,1,1.24.07,1.92,1.92,0,0,0-.49-1.3,1.77,1.77,0,0,0-1.23-.38,2,2,0,0,0-.79.16,2.23,2.23,0,0,0-.69.46l-.42-.55a2.65,2.65,0,0,1,2-.77A2.44,2.44,0,0,1,72.74,254Zm-.7,3.94a2.22,2.22,0,0,0,.56-1.51,7.5,7.5,0,0,0-1.16-.08,2.92,2.92,0,0,0-1.44.3,1,1,0,0,0-.53.91q0,.9,1.16.9A1.89,1.89,0,0,0,72,257.95Z"/><path class="cls-4" d="M75.12,253.51H76v1a2.53,2.53,0,0,1,.82-.8,2,2,0,0,1,1-.3,1.41,1.41,0,0,1,1.17.56,2.8,2.8,0,0,1,.44,1.73V259h-.84v-3.3a2,2,0,0,0-.28-1.19.87.87,0,0,0-.73-.37,1.5,1.5,0,0,0-.75.22,1.76,1.76,0,0,0-.62.61,1.62,1.62,0,0,0-.25.88V259h-.84Z"/><path class="cls-4" d="M91.68,259l-.76-2.18H88.51L87.76,259h-.83l2.76-7.61h.1L92.54,259Zm-2.94-2.83h2l-1-2.86Z"/><path class="cls-4" d="M93.92,259v-.7h1.62v-6.59H94V251h2.42v7.28H98v.7Z"/><path class="cls-4" d="M100.42,259v-.7h1.4v-4.09h-1.33v-.7h2.2v4.79H104v.7Zm1.36-6.82a.59.59,0,0,1-.18-.43.62.62,0,0,1,.17-.44.59.59,0,0,1,.44-.18.64.64,0,0,1,.62.62.58.58,0,0,1-.19.43.61.61,0,0,1-.44.18A.59.59,0,0,1,101.77,252.18Z"/><path class="cls-4" d="M106.77,258.37a2.88,2.88,0,0,1-.73-2.1,3.36,3.36,0,0,1,.34-1.55,2.37,2.37,0,0,1,2.18-1.34,2.11,2.11,0,0,1,1.61.66,2.75,2.75,0,0,1,.62,1.94q0,.13,0,.4h-3.9a2.22,2.22,0,0,0,.56,1.52,1.77,1.77,0,0,0,1.31.52,1.82,1.82,0,0,0,1.42-.61l.48.47a2.36,2.36,0,0,1-1.92.84A2.6,2.6,0,0,1,106.77,258.37Zm3.15-2.66a1.8,1.8,0,0,0-.39-1.22,1.29,1.29,0,0,0-1-.45,1.47,1.47,0,0,0-1,.42,2,2,0,0,0-.55,1.25Z"/><path class="cls-4" d="M112.56,253.51h.84v1a2.53,2.53,0,0,1,.82-.8,2,2,0,0,1,1-.3,1.41,1.41,0,0,1,1.17.56,2.8,2.8,0,0,1,.44,1.73V259H116v-3.3a2,2,0,0,0-.28-1.19.87.87,0,0,0-.73-.37,1.5,1.5,0,0,0-.75.22,1.76,1.76,0,0,0-.62.61,1.62,1.62,0,0,0-.25.88V259h-.84Z"/><path class="cls-4" d="M125.05,251H126v.08a.32.32,0,0,0-.09.16,1.6,1.6,0,0,0,0,.29v2.94a2.56,2.56,0,0,1,.81-.8,1.87,1.87,0,0,1,1-.3,1.49,1.49,0,0,1,1.22.55,2.77,2.77,0,0,1,.44,1.74V259h-.84v-3.3a2,2,0,0,0-.28-1.19.87.87,0,0,0-.73-.37,1.52,1.52,0,0,0-.76.21,1.75,1.75,0,0,0-.62.6,1.64,1.64,0,0,0-.25.89V259h-.84Z"/><path class="cls-4" d="M135.14,254a2.86,2.86,0,0,1,.62,2.08V259h-.94v-.84a1.91,1.91,0,0,1-1.87,1,2.22,2.22,0,0,1-1.43-.41,1.34,1.34,0,0,1-.52-1.1,1.5,1.5,0,0,1,.37-1,2.38,2.38,0,0,1,1-.67,4,4,0,0,1,1.39-.23,9.64,9.64,0,0,1,1.24.07,1.92,1.92,0,0,0-.49-1.3,1.77,1.77,0,0,0-1.23-.38,2,2,0,0,0-.79.16,2.23,2.23,0,0,0-.69.46l-.42-.55a2.65,2.65,0,0,1,2-.77A2.44,2.44,0,0,1,135.14,254Zm-.7,3.94a2.22,2.22,0,0,0,.56-1.51,7.5,7.5,0,0,0-1.16-.08,2.92,2.92,0,0,0-1.44.3,1,1,0,0,0-.53.91q0,.9,1.16.9A1.89,1.89,0,0,0,134.44,257.95Z"/><path class="cls-4" d="M141.51,256.45a1.2,1.2,0,0,1,.43,1,1.53,1.53,0,0,1-.58,1.23,2.57,2.57,0,0,1-1.69.49,3.3,3.3,0,0,1-2.33-.86l.48-.82h0a2.91,2.91,0,0,0,.77.72,2.08,2.08,0,0,0,1.08.24,1.9,1.9,0,0,0,1-.23.72.72,0,0,0,.37-.64.7.7,0,0,0-.3-.58,3.9,3.9,0,0,0-1.08-.48q-2.06-.59-2.06-1.7a1.18,1.18,0,0,1,.52-1,2.55,2.55,0,0,1,1.49-.37,3.31,3.31,0,0,1,1.25.21,2.7,2.7,0,0,1,.93.65l-.49.6h0a1.73,1.73,0,0,0-.71-.61,2.16,2.16,0,0,0-.94-.22,1.75,1.75,0,0,0-.85.18.55.55,0,0,0-.33.5.7.7,0,0,0,.34.55,4,4,0,0,0,1.21.5A4.17,4.17,0,0,1,141.51,256.45Zm-3.7.92,0,0,0,0S137.8,257.36,137.81,257.36Zm.16,0s0,0-.11,0l0-.06.07,0Zm3.34-2.5,0,0-.06-.06S141.24,254.84,141.3,254.89Zm.07,0h0l0,0,0,0S141.37,254.91,141.37,254.91Z"/><path class="cls-4" d="M153.56,253.51v5.22a2.39,2.39,0,0,1-.59,1.77,2.06,2.06,0,0,1-1.51.58,2.53,2.53,0,0,1-1-.19,2,2,0,0,1-.77-.58l.48-.65h0a2,2,0,0,0,.53.49,1.32,1.32,0,0,0,.7.18,1.14,1.14,0,0,0,.9-.38,1.75,1.75,0,0,0,.34-1.18v-4.56h-2v-.71Zm-3.38,6.08,0,0,0,0S150.17,259.59,150.18,259.59Zm.16,0s0,0,0,0l-.07,0,0,0,.07,0Zm2.29-7.45a.59.59,0,0,1-.18-.43.62.62,0,0,1,.17-.44.59.59,0,0,1,.44-.18.64.64,0,0,1,.62.62.58.58,0,0,1-.19.43.61.61,0,0,1-.44.18A.59.59,0,0,1,152.63,252.18Z"/><path class="cls-4" d="M156.65,258.49a3,3,0,0,1-.5-1.91v-3.06H157v3.06a2.33,2.33,0,0,0,.34,1.42,1.09,1.09,0,0,0,.91.44,1.34,1.34,0,0,0,1-.49,2.08,2.08,0,0,0,.43-1.41v-3h.84v4.63c0,.19,0,.35,0,.47a1.23,1.23,0,0,0,.1.38h-.83a1.12,1.12,0,0,1-.1-.37c0-.13,0-.28,0-.47a1.91,1.91,0,0,1-.71.71,2,2,0,0,1-1,.26A1.68,1.68,0,0,1,156.65,258.49Z"/><path class="cls-4" d="M166.47,256.45a1.2,1.2,0,0,1,.43,1,1.53,1.53,0,0,1-.58,1.23,2.57,2.57,0,0,1-1.69.49,3.3,3.3,0,0,1-2.33-.86l.48-.82h0a2.91,2.91,0,0,0,.77.72,2.08,2.08,0,0,0,1.08.24,1.9,1.9,0,0,0,1-.23.72.72,0,0,0,.37-.64.7.7,0,0,0-.3-.58,3.9,3.9,0,0,0-1.08-.48q-2.06-.59-2.06-1.7a1.18,1.18,0,0,1,.52-1,2.55,2.55,0,0,1,1.49-.37,3.31,3.31,0,0,1,1.25.21,2.7,2.7,0,0,1,.93.65l-.49.6h0a1.73,1.73,0,0,0-.71-.61,2.16,2.16,0,0,0-.94-.22,1.75,1.75,0,0,0-.85.18.55.55,0,0,0-.33.5.7.7,0,0,0,.34.55,4,4,0,0,0,1.21.5A4.17,4.17,0,0,1,166.47,256.45Zm-3.7.92,0,0,0,0S162.76,257.36,162.77,257.36Zm.16,0s0,0-.11,0l0-.06.07,0Zm3.34-2.5,0,0-.06-.06S166.2,254.84,166.26,254.89Zm.07,0h0l0,0,0,0S166.33,254.91,166.33,254.91Z"/><path class="cls-4" d="M173.18,258.49a2.86,2.86,0,0,1-1.74.59,1.45,1.45,0,0,1-1.29-.55,3.28,3.28,0,0,1-.38-1.8c0-.14,0-.37,0-.71l.11-1.8H168.7v-.71H170L170,252l1-.16h.12V252a1.68,1.68,0,0,0-.13.2.73.73,0,0,0-.05.26l-.13,1.09h1.82v.71h-1.87l-.11,1.86q0,.48,0,.64a2.62,2.62,0,0,0,.22,1.3.79.79,0,0,0,.71.34,1.62,1.62,0,0,0,.66-.13,3.57,3.57,0,0,0,.68-.42Z"/><path class="cls-4" d="M185.19,256.45a1.2,1.2,0,0,1,.43,1,1.53,1.53,0,0,1-.58,1.23,2.57,2.57,0,0,1-1.69.49,3.3,3.3,0,0,1-2.33-.86l.48-.82h0a2.91,2.91,0,0,0,.77.72,2.08,2.08,0,0,0,1.08.24,1.9,1.9,0,0,0,1-.23.72.72,0,0,0,.37-.64.7.7,0,0,0-.3-.58,3.9,3.9,0,0,0-1.08-.48q-2.06-.59-2.06-1.7a1.18,1.18,0,0,1,.52-1,2.55,2.55,0,0,1,1.49-.37,3.31,3.31,0,0,1,1.25.21,2.7,2.7,0,0,1,.93.65l-.49.6h0a1.73,1.73,0,0,0-.71-.61,2.16,2.16,0,0,0-.94-.22,1.75,1.75,0,0,0-.85.18.55.55,0,0,0-.33.5.7.7,0,0,0,.34.55,4,4,0,0,0,1.21.5A4.17,4.17,0,0,1,185.19,256.45Zm-3.7.92,0,0,0,0S181.48,257.36,181.49,257.36Zm.16,0s0,0-.11,0l0-.06.07,0Zm3.34-2.5,0,0-.06-.06S184.92,254.84,185,254.89Zm.07,0h0l0,0,0,0S185,254.91,185,254.91Z"/><path class="cls-4" d="M191.9,258.49a2.86,2.86,0,0,1-1.74.59,1.45,1.45,0,0,1-1.29-.55,3.28,3.28,0,0,1-.38-1.8c0-.14,0-.37,0-.71l.11-1.8h-1.21v-.71h1.26l.08-1.46,1-.16h.12V252a1.68,1.68,0,0,0-.13.2.73.73,0,0,0-.05.26l-.13,1.09h1.82v.71h-1.87l-.11,1.86q0,.48,0,.64a2.62,2.62,0,0,0,.22,1.3.79.79,0,0,0,.71.34,1.62,1.62,0,0,0,.66-.13,3.57,3.57,0,0,0,.68-.42Z"/><path class="cls-4" d="M194.51,258.73a2.45,2.45,0,0,1-.9-1,3.52,3.52,0,0,1,0-3,2.49,2.49,0,0,1,.9-1,2.53,2.53,0,0,1,2.62,0,2.49,2.49,0,0,1,.9,1,3.52,3.52,0,0,1,0,3,2.45,2.45,0,0,1-.9,1,2.56,2.56,0,0,1-2.62,0Zm2.14-.64a1.84,1.84,0,0,0,.58-.76,2.75,2.75,0,0,0,.21-1.1,2.45,2.45,0,0,0-.46-1.53,1.44,1.44,0,0,0-2.33,0,2.44,2.44,0,0,0-.46,1.53,2.74,2.74,0,0,0,.21,1.1,1.84,1.84,0,0,0,.58.76,1.4,1.4,0,0,0,1.67,0Z"/><path class="cls-4" d="M200,259v-.7h1.62v-6.59h-1.55V251h2.42v7.28h1.61v.7Z"/><path class="cls-4" d="M206.61,258.37a2.88,2.88,0,0,1-.73-2.1,3.36,3.36,0,0,1,.34-1.55,2.37,2.37,0,0,1,2.18-1.34A2.11,2.11,0,0,1,210,254a2.75,2.75,0,0,1,.62,1.94q0,.13,0,.4h-3.9a2.22,2.22,0,0,0,.56,1.52,1.77,1.77,0,0,0,1.31.52,1.82,1.82,0,0,0,1.42-.61l.48.47a2.36,2.36,0,0,1-1.92.84A2.6,2.6,0,0,1,206.61,258.37Zm3.15-2.66a1.8,1.8,0,0,0-.39-1.22,1.29,1.29,0,0,0-1-.45,1.47,1.47,0,0,0-1,.42,2,2,0,0,0-.55,1.25Z"/><path class="cls-4" d="M212.4,253.51h.84v1a2.53,2.53,0,0,1,.82-.8,2,2,0,0,1,1-.3,1.41,1.41,0,0,1,1.17.56,2.8,2.8,0,0,1,.44,1.73V259h-.84v-3.3a2,2,0,0,0-.28-1.19.87.87,0,0,0-.73-.37,1.5,1.5,0,0,0-.75.22,1.76,1.76,0,0,0-.62.61,1.62,1.62,0,0,0-.25.88V259h-.84Z"/><path class="cls-4" d="M228.74,254a2.86,2.86,0,0,1,.62,2.08V259h-.94v-.84a1.91,1.91,0,0,1-1.87,1,2.22,2.22,0,0,1-1.43-.41,1.34,1.34,0,0,1-.52-1.1,1.5,1.5,0,0,1,.37-1,2.38,2.38,0,0,1,1-.67,4,4,0,0,1,1.39-.23,9.64,9.64,0,0,1,1.24.07,1.92,1.92,0,0,0-.49-1.3,1.77,1.77,0,0,0-1.23-.38,2,2,0,0,0-.79.16,2.23,2.23,0,0,0-.69.46l-.42-.55a2.65,2.65,0,0,1,2-.77A2.44,2.44,0,0,1,228.74,254Zm-.7,3.94a2.22,2.22,0,0,0,.56-1.51,7.5,7.5,0,0,0-1.16-.08,2.92,2.92,0,0,0-1.44.3,1,1,0,0,0-.53.91q0,.9,1.16.9A1.89,1.89,0,0,0,228,257.95Z"/><path class="cls-4" d="M231.2,259v-.7h1.62v-6.59h-1.55V251h2.42v7.28h1.61v.7Z"/><path class="cls-4" d="M237.44,259v-.7h1.62v-6.59h-1.55V251h2.42v7.28h1.61v.7Z"/><path class="cls-4" d="M250.67,258.73a2.45,2.45,0,0,1-.9-1,3.52,3.52,0,0,1,0-3,2.49,2.49,0,0,1,.9-1,2.53,2.53,0,0,1,2.62,0,2.49,2.49,0,0,1,.9,1,3.52,3.52,0,0,1,0,3,2.45,2.45,0,0,1-.9,1,2.56,2.56,0,0,1-2.62,0Zm2.14-.64a1.84,1.84,0,0,0,.58-.76,2.75,2.75,0,0,0,.21-1.1,2.45,2.45,0,0,0-.46-1.53,1.44,1.44,0,0,0-2.33,0,2.44,2.44,0,0,0-.46,1.53,2.74,2.74,0,0,0,.21,1.1,1.84,1.84,0,0,0,.58.76,1.4,1.4,0,0,0,1.67,0Z"/><path class="cls-4" d="M256.49,258.49a3,3,0,0,1-.5-1.91v-3.06h.84v3.06a2.33,2.33,0,0,0,.34,1.42,1.09,1.09,0,0,0,.91.44,1.34,1.34,0,0,0,1-.49,2.08,2.08,0,0,0,.43-1.41v-3h.84v4.63c0,.19,0,.35,0,.47a1.24,1.24,0,0,0,.1.38h-.83a1.12,1.12,0,0,1-.1-.37c0-.13,0-.28,0-.47a1.91,1.91,0,0,1-.71.71,2,2,0,0,1-1,.26A1.68,1.68,0,0,1,256.49,258.49Z"/><path class="cls-4" d="M266.57,254.65h0a2.45,2.45,0,0,0-.58-.43,1.29,1.29,0,0,0-.55-.11,1.64,1.64,0,0,0-.82.22,1.62,1.62,0,0,0-.62.65,2.26,2.26,0,0,0-.24,1.1V259h-.88v-5.5h.9l0,1a1.79,1.79,0,0,1,.7-.84,2,2,0,0,1,2.49.3Zm-.13,0s0,0,0,0l.07,0,0,.06-.08,0Zm.17,0-.07,0,0,0C266.62,254.71,266.64,254.73,266.61,254.72Z"/><path class="cls-4" d="M275.14,259v-.7h1.4v-4.09h-1.33v-.7h2.2v4.79h1.28v.7Zm1.36-6.82a.59.59,0,0,1-.18-.43.61.61,0,0,1,.17-.44.59.59,0,0,1,.44-.18.64.64,0,0,1,.62.62.58.58,0,0,1-.19.43.61.61,0,0,1-.44.18A.59.59,0,0,1,276.49,252.18Z"/><path class="cls-4" d="M280.63,253.51h.79v.54a1.55,1.55,0,0,1,.49-.49,1.17,1.17,0,0,1,.62-.19,1,1,0,0,1,.63.23,1,1,0,0,1,.34.58,1.3,1.3,0,0,1,.49-.58,1.32,1.32,0,0,1,.74-.22.92.92,0,0,1,.81.39,1.63,1.63,0,0,1,.25,1V259H285v-3.89a1.91,1.91,0,0,0-.13-.89.43.43,0,0,0-.38-.2.6.6,0,0,0-.42.2,1.52,1.52,0,0,0-.33.52,1.7,1.7,0,0,0-.13.63V259h-.8v-3.82a2.16,2.16,0,0,0-.13-.91.49.49,0,0,0-.47-.23.56.56,0,0,0-.37.16,1.19,1.19,0,0,0-.31.46,1.78,1.78,0,0,0-.12.68V259h-.79Z"/><path class="cls-4" d="M291.14,254a2.86,2.86,0,0,1,.62,2.08V259h-.94v-.84a1.91,1.91,0,0,1-1.87,1,2.22,2.22,0,0,1-1.43-.41,1.34,1.34,0,0,1-.52-1.1,1.5,1.5,0,0,1,.37-1,2.38,2.38,0,0,1,1-.67,4,4,0,0,1,1.39-.23,9.65,9.65,0,0,1,1.24.07,1.91,1.91,0,0,0-.49-1.3,1.77,1.77,0,0,0-1.23-.38,2,2,0,0,0-.79.16,2.23,2.23,0,0,0-.69.46l-.42-.55a2.65,2.65,0,0,1,2-.77A2.44,2.44,0,0,1,291.14,254Zm-.7,3.94a2.22,2.22,0,0,0,.56-1.51,7.51,7.51,0,0,0-1.16-.08,2.92,2.92,0,0,0-1.44.3,1,1,0,0,0-.53.91q0,.9,1.16.9A1.88,1.88,0,0,0,290.44,257.95Z"/><path class="cls-4" d="M298,254.06a1.71,1.71,0,0,0-1,.25,2,2,0,0,1,.2.9,2.05,2.05,0,0,1-.23,1,1.72,1.72,0,0,1-.67.69,2,2,0,0,1-1,.25,2.15,2.15,0,0,1-.85-.17.81.81,0,0,0-.22.5q0,.29.37.41A4.62,4.62,0,0,0,296,258a2.59,2.59,0,0,1,1.59.35,1.27,1.27,0,0,1,.43,1,1.47,1.47,0,0,1-.58,1.18,2.8,2.8,0,0,1-1.8.47,3.91,3.91,0,0,1-1.84-.36,1.14,1.14,0,0,1-.67-1.06,1.18,1.18,0,0,1,.24-.74,1.68,1.68,0,0,1,.61-.49.83.83,0,0,1-.4-.73,1.53,1.53,0,0,1,.49-1,1.71,1.71,0,0,1-.46-.64,2.08,2.08,0,0,1-.16-.82,2,2,0,0,1,.23-1,1.71,1.71,0,0,1,.67-.69,2,2,0,0,1,1-.25,1.83,1.83,0,0,1,1.4.56,2,2,0,0,1,.59-.39,1.76,1.76,0,0,1,.68-.13h.2l.11.71Zm-.94,5a.65.65,0,0,0-.4-.24,3.87,3.87,0,0,0-.9-.08,4.94,4.94,0,0,1-1.38-.16,1.22,1.22,0,0,0-.4.4,1.1,1.1,0,0,0-.11.54.7.7,0,0,0,.46.64,2.9,2.9,0,0,0,1.27.23,2.35,2.35,0,0,0,1.18-.23.72.72,0,0,0,.39-.64A.85.85,0,0,0,297.1,259.08Zm-.88-3a1.23,1.23,0,0,0,0-1.7,1.23,1.23,0,0,0-1.72,0,1.23,1.23,0,0,0,0,1.7,1.23,1.23,0,0,0,1.72,0Z"/><path class="cls-4" d="M300.21,258.37a2.88,2.88,0,0,1-.73-2.1,3.37,3.37,0,0,1,.34-1.55,2.37,2.37,0,0,1,2.18-1.34,2.11,2.11,0,0,1,1.61.66,2.75,2.75,0,0,1,.62,1.94q0,.13,0,.4h-3.9a2.22,2.22,0,0,0,.56,1.52,1.77,1.77,0,0,0,1.31.52,1.82,1.82,0,0,0,1.42-.61l.48.47a2.36,2.36,0,0,1-1.92.84A2.6,2.6,0,0,1,300.21,258.37Zm3.15-2.66a1.8,1.8,0,0,0-.39-1.22,1.29,1.29,0,0,0-1-.45,1.47,1.47,0,0,0-1,.42,2,2,0,0,0-.55,1.25Z"/><path class="cls-4" d="M310,256.45a1.2,1.2,0,0,1,.43,1,1.53,1.53,0,0,1-.58,1.23,2.57,2.57,0,0,1-1.69.49,3.3,3.3,0,0,1-2.33-.86l.48-.82h0a2.91,2.91,0,0,0,.77.72,2.08,2.08,0,0,0,1.08.24,1.9,1.9,0,0,0,1-.23.72.72,0,0,0,.37-.64.69.69,0,0,0-.3-.58,3.9,3.9,0,0,0-1.08-.48q-2.06-.59-2.06-1.7a1.17,1.17,0,0,1,.52-1,2.55,2.55,0,0,1,1.49-.37,3.31,3.31,0,0,1,1.25.21,2.69,2.69,0,0,1,.93.65l-.49.6h0a1.73,1.73,0,0,0-.71-.61,2.16,2.16,0,0,0-.94-.22,1.76,1.76,0,0,0-.85.18.56.56,0,0,0-.33.5.7.7,0,0,0,.34.55,4.06,4.06,0,0,0,1.21.5A4.16,4.16,0,0,1,310,256.45Zm-3.7.92,0,0,0,0S306.28,257.36,306.29,257.36Zm.16,0s0,0-.11,0l0-.06.07,0Zm3.34-2.5,0,0-.06-.06S309.72,254.84,309.78,254.89Zm.07,0h0l0,0,0,0S309.85,254.91,309.85,254.91Z"/><path class="cls-4" d="M76.25,269.05h0a2.42,2.42,0,0,0-.58-.43,1.29,1.29,0,0,0-.55-.11,1.64,1.64,0,0,0-.82.22,1.62,1.62,0,0,0-.62.65,2.26,2.26,0,0,0-.24,1.1v2.92h-.88v-5.5h.9l0,1a1.79,1.79,0,0,1,.7-.84,2,2,0,0,1,2.49.3Zm-.13,0s0,0,0,0l.07,0,0,.06-.08,0Zm.17,0-.07,0,0,0C76.3,269.11,76.32,269.13,76.29,269.12Z"/><path class="cls-4" d="M78.69,272.77a2.88,2.88,0,0,1-.73-2.1,3.36,3.36,0,0,1,.34-1.55,2.37,2.37,0,0,1,2.18-1.34,2.11,2.11,0,0,1,1.61.66,2.75,2.75,0,0,1,.62,1.94q0,.13,0,.4h-3.9a2.22,2.22,0,0,0,.56,1.52,1.77,1.77,0,0,0,1.31.52,1.82,1.82,0,0,0,1.42-.61l.48.47a2.36,2.36,0,0,1-1.92.84A2.6,2.6,0,0,1,78.69,272.77Zm3.15-2.66a1.8,1.8,0,0,0-.39-1.22,1.29,1.29,0,0,0-1-.45,1.47,1.47,0,0,0-1,.42,2,2,0,0,0-.55,1.25Z"/><path class="cls-4" d="M89,268.46a1.71,1.71,0,0,0-1,.25,2,2,0,0,1,.2.9,2,2,0,0,1-.23,1,1.71,1.71,0,0,1-.67.69,2,2,0,0,1-1,.25,2.15,2.15,0,0,1-.85-.17.81.81,0,0,0-.22.5q0,.29.37.41a4.62,4.62,0,0,0,1.31.13,2.59,2.59,0,0,1,1.59.35,1.27,1.27,0,0,1,.43,1,1.47,1.47,0,0,1-.58,1.18,2.81,2.81,0,0,1-1.8.47,3.91,3.91,0,0,1-1.84-.36,1.14,1.14,0,0,1-.67-1.06,1.18,1.18,0,0,1,.24-.74,1.69,1.69,0,0,1,.61-.49.83.83,0,0,1-.4-.73,1.53,1.53,0,0,1,.49-1,1.72,1.72,0,0,1-.46-.64,2.08,2.08,0,0,1-.16-.82,2,2,0,0,1,.23-1,1.71,1.71,0,0,1,.67-.69,2,2,0,0,1,1-.25,1.83,1.83,0,0,1,1.4.56,2,2,0,0,1,.59-.39,1.77,1.77,0,0,1,.68-.13h.2l.11.71Zm-.94,5a.65.65,0,0,0-.4-.24,3.87,3.87,0,0,0-.9-.08,4.94,4.94,0,0,1-1.38-.16,1.22,1.22,0,0,0-.4.4,1.1,1.1,0,0,0-.11.54.7.7,0,0,0,.46.64,2.9,2.9,0,0,0,1.27.23,2.35,2.35,0,0,0,1.18-.23.72.72,0,0,0,.39-.64A.84.84,0,0,0,88.06,273.49Zm-.88-3a1.23,1.23,0,0,0,0-1.7,1.23,1.23,0,0,0-1.72,0,1.23,1.23,0,0,0,0,1.7,1.23,1.23,0,0,0,1.72,0Z"/><path class="cls-4" d="M94.58,268.4a2.86,2.86,0,0,1,.62,2.08v2.92h-.94v-.84a1.91,1.91,0,0,1-1.87,1,2.22,2.22,0,0,1-1.43-.41,1.34,1.34,0,0,1-.52-1.1,1.5,1.5,0,0,1,.37-1,2.38,2.38,0,0,1,1-.67,4,4,0,0,1,1.39-.23,9.64,9.64,0,0,1,1.24.07,1.92,1.92,0,0,0-.49-1.3,1.77,1.77,0,0,0-1.23-.38,2,2,0,0,0-.79.16,2.23,2.23,0,0,0-.69.46l-.42-.55a2.65,2.65,0,0,1,2-.77A2.44,2.44,0,0,1,94.58,268.4Zm-.7,3.94a2.22,2.22,0,0,0,.56-1.51,7.5,7.5,0,0,0-1.16-.08,2.92,2.92,0,0,0-1.44.3,1,1,0,0,0-.53.91q0,.9,1.16.9A1.89,1.89,0,0,0,93.88,272.35Z"/><path class="cls-4" d="M101.21,269.05h0a2.42,2.42,0,0,0-.58-.43,1.29,1.29,0,0,0-.55-.11,1.64,1.64,0,0,0-.82.22,1.62,1.62,0,0,0-.62.65,2.26,2.26,0,0,0-.24,1.1v2.92h-.88v-5.5h.9l0,1a1.79,1.79,0,0,1,.7-.84,2,2,0,0,1,2.49.3Zm-.13,0s0,0,0,0l.07,0,0,.06-.08,0Zm.17,0-.07,0,0,0C101.26,269.11,101.28,269.13,101.25,269.12Z"/><path class="cls-4" d="M104,273.19a2.38,2.38,0,0,1-.84-1,3.59,3.59,0,0,1-.32-1.6,3.36,3.36,0,0,1,.34-1.58,2.28,2.28,0,0,1,.86-.94,2.19,2.19,0,0,1,1.12-.31,1.82,1.82,0,0,1,1,.25,1.63,1.63,0,0,1,.63.7v-3.3h.91v.08a.32.32,0,0,0-.09.16,1.6,1.6,0,0,0,0,.29v6.6c0,.19,0,.35,0,.47a1.23,1.23,0,0,0,.1.38h-.85a1.23,1.23,0,0,1-.1-.38c0-.12,0-.28,0-.47a2,2,0,0,1-.68.71,1.72,1.72,0,0,1-.93.26A2,2,0,0,1,104,273.19Zm2.33-1a3,3,0,0,0,.35-1.55,2.85,2.85,0,0,0-.38-1.56,1.26,1.26,0,0,0-1.13-.59,1.28,1.28,0,0,0-1.1.53,2.45,2.45,0,0,0-.38,1.46,3,3,0,0,0,.4,1.67,1.3,1.3,0,0,0,1.16.62A1.18,1.18,0,0,0,106.37,272.17Z"/><path class="cls-4" d="M109.78,273.4v-.7h1.4v-4.09h-1.33v-.7H112v4.79h1.28v.7Zm1.36-6.82a.59.59,0,0,1-.18-.43.62.62,0,0,1,.17-.44.59.59,0,0,1,.44-.18.64.64,0,0,1,.62.62.58.58,0,0,1-.19.43.61.61,0,0,1-.44.18A.59.59,0,0,1,111.13,266.58Z"/><path class="cls-4" d="M115.68,267.91h.84v1a2.53,2.53,0,0,1,.82-.8,2,2,0,0,1,1-.3,1.41,1.41,0,0,1,1.17.56,2.8,2.8,0,0,1,.44,1.73v3.32h-.84v-3.3a2,2,0,0,0-.28-1.19.87.87,0,0,0-.73-.37,1.5,1.5,0,0,0-.75.22,1.76,1.76,0,0,0-.62.61,1.62,1.62,0,0,0-.25.88v3.16h-.84Z"/><path class="cls-4" d="M126.44,268.46a1.71,1.71,0,0,0-1,.25,2,2,0,0,1,.2.9,2,2,0,0,1-.23,1,1.71,1.71,0,0,1-.67.69,2,2,0,0,1-1,.25,2.15,2.15,0,0,1-.85-.17.81.81,0,0,0-.22.5q0,.29.37.41a4.62,4.62,0,0,0,1.31.13,2.59,2.59,0,0,1,1.59.35,1.27,1.27,0,0,1,.43,1,1.47,1.47,0,0,1-.58,1.18,2.81,2.81,0,0,1-1.8.47,3.91,3.91,0,0,1-1.84-.36,1.14,1.14,0,0,1-.67-1.06,1.18,1.18,0,0,1,.24-.74,1.69,1.69,0,0,1,.61-.49.83.83,0,0,1-.4-.73,1.53,1.53,0,0,1,.49-1,1.72,1.72,0,0,1-.46-.64,2.08,2.08,0,0,1-.16-.82,2,2,0,0,1,.23-1,1.71,1.71,0,0,1,.67-.69,2,2,0,0,1,1-.25,1.83,1.83,0,0,1,1.4.56,2,2,0,0,1,.59-.39,1.77,1.77,0,0,1,.68-.13h.2l.11.71Zm-.94,5a.65.65,0,0,0-.4-.24,3.87,3.87,0,0,0-.9-.08,4.94,4.94,0,0,1-1.38-.16,1.22,1.22,0,0,0-.4.4,1.1,1.1,0,0,0-.11.54.7.7,0,0,0,.46.64,2.9,2.9,0,0,0,1.27.23,2.35,2.35,0,0,0,1.18-.23.72.72,0,0,0,.39-.64A.84.84,0,0,0,125.5,273.49Zm-.88-3a1.23,1.23,0,0,0,0-1.7,1.23,1.23,0,0,0-1.72,0,1.23,1.23,0,0,0,0,1.7,1.23,1.23,0,0,0,1.72,0Z"/><path class="cls-4" d="M138.86,272.89a2.86,2.86,0,0,1-1.74.59,1.45,1.45,0,0,1-1.29-.55,3.28,3.28,0,0,1-.38-1.8c0-.14,0-.37,0-.71l.11-1.8h-1.21v-.71h1.26l.08-1.46,1-.16h.12v.07a1.68,1.68,0,0,0-.13.2.73.73,0,0,0-.05.26l-.13,1.09h1.82v.71h-1.87l-.11,1.86q0,.48,0,.64a2.62,2.62,0,0,0,.22,1.3.79.79,0,0,0,.71.34,1.62,1.62,0,0,0,.66-.13,3.57,3.57,0,0,0,.68-.42Z"/><path class="cls-4" d="M141.47,273.13a2.45,2.45,0,0,1-.9-1,3.52,3.52,0,0,1,0-3,2.49,2.49,0,0,1,.9-1,2.53,2.53,0,0,1,2.62,0,2.49,2.49,0,0,1,.9,1,3.52,3.52,0,0,1,0,3,2.45,2.45,0,0,1-.9,1,2.56,2.56,0,0,1-2.62,0Zm2.14-.64a1.84,1.84,0,0,0,.58-.76,2.75,2.75,0,0,0,.21-1.1,2.45,2.45,0,0,0-.46-1.53,1.44,1.44,0,0,0-2.33,0,2.44,2.44,0,0,0-.46,1.53,2.74,2.74,0,0,0,.21,1.1,1.84,1.84,0,0,0,.58.76,1.4,1.4,0,0,0,1.67,0Z"/><path class="cls-4" d="M157.57,267.91a6.36,6.36,0,0,1-.22,1c-.1.32-.24.74-.43,1.27L155.56,274a2.42,2.42,0,0,1-.72,1.12,1.66,1.66,0,0,1-1.06.35,1.75,1.75,0,0,1-1.26-.47l.37-.59h0a1.26,1.26,0,0,0,.41.26,1.39,1.39,0,0,0,.5.08.88.88,0,0,0,.71-.31,3.39,3.39,0,0,0,.52-1l-2.24-5.52h.9l1.7,4.39.72-2.21q.26-.83.39-1.27a6,6,0,0,0,.19-.92Zm-4.7,6.46h0v0S152.85,274.36,152.87,274.37Zm.16,0a0,0,0,0,1,0,0l-.1,0,0-.06.07,0Z"/><path class="cls-4" d="M160.19,273.13a2.45,2.45,0,0,1-.9-1,3.52,3.52,0,0,1,0-3,2.49,2.49,0,0,1,.9-1,2.53,2.53,0,0,1,2.62,0,2.49,2.49,0,0,1,.9,1,3.52,3.52,0,0,1,0,3,2.45,2.45,0,0,1-.9,1,2.56,2.56,0,0,1-2.62,0Zm2.14-.64a1.84,1.84,0,0,0,.58-.76,2.75,2.75,0,0,0,.21-1.1,2.45,2.45,0,0,0-.46-1.53,1.44,1.44,0,0,0-2.33,0,2.44,2.44,0,0,0-.46,1.53,2.74,2.74,0,0,0,.21,1.1,1.84,1.84,0,0,0,.58.76,1.4,1.4,0,0,0,1.67,0Z"/><path class="cls-4" d="M166,272.89a3,3,0,0,1-.5-1.91v-3.06h.84V271a2.33,2.33,0,0,0,.34,1.42,1.09,1.09,0,0,0,.91.44,1.34,1.34,0,0,0,1-.49,2.08,2.08,0,0,0,.43-1.41v-3h.84v4.63c0,.19,0,.35,0,.47a1.23,1.23,0,0,0,.1.38h-.83a1.12,1.12,0,0,1-.1-.37c0-.13,0-.28,0-.47a1.91,1.91,0,0,1-.71.71,2,2,0,0,1-1,.26A1.68,1.68,0,0,1,166,272.89Z"/><path class="cls-4" d="M176.09,269.05h0a2.42,2.42,0,0,0-.58-.43,1.29,1.29,0,0,0-.55-.11,1.64,1.64,0,0,0-.82.22,1.62,1.62,0,0,0-.62.65,2.26,2.26,0,0,0-.24,1.1v2.92h-.88v-5.5h.9l0,1a1.79,1.79,0,0,1,.7-.84,2,2,0,0,1,2.49.3Zm-.13,0s0,0,0,0l.07,0,0,.06-.08,0Zm.17,0-.07,0,0,0C176.14,269.11,176.16,269.13,176.13,269.12Z"/><path class="cls-4" d="M188.31,270.85a1.2,1.2,0,0,1,.43,1,1.53,1.53,0,0,1-.58,1.23,2.57,2.57,0,0,1-1.69.49,3.3,3.3,0,0,1-2.33-.86l.48-.82h0a2.91,2.91,0,0,0,.77.72,2.08,2.08,0,0,0,1.08.24,1.9,1.9,0,0,0,1-.23.72.72,0,0,0,.37-.64.7.7,0,0,0-.3-.58,3.9,3.9,0,0,0-1.08-.48q-2.06-.59-2.06-1.7a1.18,1.18,0,0,1,.52-1,2.55,2.55,0,0,1,1.49-.37,3.31,3.31,0,0,1,1.25.21,2.7,2.7,0,0,1,.93.65l-.49.6h0a1.73,1.73,0,0,0-.71-.61,2.16,2.16,0,0,0-.94-.22,1.75,1.75,0,0,0-.85.18.55.55,0,0,0-.33.5.7.7,0,0,0,.34.55,4,4,0,0,0,1.21.5A4.17,4.17,0,0,1,188.31,270.85Zm-3.7.92,0,0,0,0S184.6,271.76,184.61,271.76Zm.16,0s0,0-.11,0l0-.06.07,0Zm3.34-2.5,0,0-.06-.06S188,269.24,188.1,269.29Zm.07,0h0l0,0,0,0S188.17,269.31,188.17,269.32Z"/><path class="cls-4" d="M191,272.77a2.88,2.88,0,0,1-.73-2.1,3.36,3.36,0,0,1,.34-1.55,2.37,2.37,0,0,1,2.18-1.34,2.11,2.11,0,0,1,1.61.66,2.75,2.75,0,0,1,.62,1.94q0,.13,0,.4h-3.9a2.22,2.22,0,0,0,.56,1.52,1.77,1.77,0,0,0,1.31.52,1.82,1.82,0,0,0,1.42-.61l.48.47a2.36,2.36,0,0,1-1.92.84A2.6,2.6,0,0,1,191,272.77Zm3.15-2.66a1.8,1.8,0,0,0-.39-1.22,1.29,1.29,0,0,0-1-.45,1.47,1.47,0,0,0-1,.42,2,2,0,0,0-.55,1.25Z"/><path class="cls-4" d="M200.66,268.4a2.86,2.86,0,0,1,.62,2.08v2.92h-.94v-.84a1.91,1.91,0,0,1-1.87,1,2.22,2.22,0,0,1-1.43-.41,1.34,1.34,0,0,1-.52-1.1,1.5,1.5,0,0,1,.37-1,2.38,2.38,0,0,1,1-.67,4,4,0,0,1,1.39-.23,9.64,9.64,0,0,1,1.24.07,1.92,1.92,0,0,0-.49-1.3,1.77,1.77,0,0,0-1.23-.38,2,2,0,0,0-.79.16,2.23,2.23,0,0,0-.69.46l-.42-.55a2.65,2.65,0,0,1,2-.77A2.44,2.44,0,0,1,200.66,268.4Zm-.7,3.94a2.22,2.22,0,0,0,.56-1.51,7.5,7.5,0,0,0-1.16-.08,2.92,2.92,0,0,0-1.44.3,1,1,0,0,0-.53.91q0,.9,1.16.9A1.89,1.89,0,0,0,200,272.35Z"/><path class="cls-4" d="M207.29,269.05h0a2.42,2.42,0,0,0-.58-.43,1.29,1.29,0,0,0-.55-.11,1.64,1.64,0,0,0-.82.22,1.62,1.62,0,0,0-.62.65,2.26,2.26,0,0,0-.24,1.1v2.92h-.88v-5.5h.9l0,1a1.79,1.79,0,0,1,.7-.84,2,2,0,0,1,2.49.3Zm-.13,0s0,0,0,0l.07,0,0,.06-.08,0Zm.17,0-.07,0,0,0C207.34,269.11,207.36,269.13,207.33,269.12Z"/><path class="cls-4" d="M213.31,272.07l.5.59a2.6,2.6,0,0,1-2,.86,2.71,2.71,0,0,1-1.42-.37,2.63,2.63,0,0,1-1-1,3,3,0,0,1-.35-1.47,3,3,0,0,1,.35-1.46,2.64,2.64,0,0,1,1-1,2.69,2.69,0,0,1,1.4-.37,2.65,2.65,0,0,1,1.2.27,2.33,2.33,0,0,1,.88.75l-.54.53h0a2.18,2.18,0,0,0-.71-.64,2,2,0,0,0-.91-.19,1.57,1.57,0,0,0-.87.26,1.83,1.83,0,0,0-.64.73,2.33,2.33,0,0,0-.24,1.08,2.43,2.43,0,0,0,.25,1.1,1.88,1.88,0,0,0,.68.77,1.8,1.8,0,0,0,1,.28A1.85,1.85,0,0,0,213.31,272.07Zm0-2.69,0,0-.06-.06S213.25,269.33,213.32,269.39Zm.05,0-.05,0,0,0C213.39,269.42,213.4,269.44,213.38,269.42Z"/><path class="cls-4" d="M215.53,265.41h.95v.08a.32.32,0,0,0-.09.16,1.6,1.6,0,0,0,0,.29v2.94a2.56,2.56,0,0,1,.81-.8,1.87,1.87,0,0,1,1-.3,1.49,1.49,0,0,1,1.22.55,2.77,2.77,0,0,1,.44,1.74v3.32H219v-3.3a2,2,0,0,0-.28-1.19.87.87,0,0,0-.73-.37,1.52,1.52,0,0,0-.76.21,1.75,1.75,0,0,0-.62.6,1.64,1.64,0,0,0-.25.89v3.16h-.84Z"/><path class="cls-4" d="M223.26,273.32a.67.67,0,0,1,0-1,.67.67,0,0,1,.49-.2.68.68,0,0,1,0,1.37A.67.67,0,0,1,223.26,273.32Z"/><path class="cls-4" d="M229.5,273.32a.67.67,0,0,1,0-1,.67.67,0,0,1,.49-.2.68.68,0,0,1,0,1.37A.67.67,0,0,1,229.5,273.32Z"/><path class="cls-4" d="M235.74,273.32a.67.67,0,0,1,0-1,.67.67,0,0,1,.49-.2.68.68,0,0,1,0,1.37A.67.67,0,0,1,235.74,273.32Z"/><path class="cls-4" d="M107.72,298v-6.31h-2v-1.17h5.51v1.17h-2.11V298Z"/><path class="cls-4" d="M116.72,294.09h0a1.5,1.5,0,0,0-.48-.52,1.15,1.15,0,0,0-.6-.16,1.5,1.5,0,0,0-.77.2,1.41,1.41,0,0,0-.54.58,1.86,1.86,0,0,0-.2.87V298h-1.36v-5.6h1.38v.8a1.62,1.62,0,0,1,.65-.68,1.91,1.91,0,0,1,1-.25,2.34,2.34,0,0,1,.83.16,2.17,2.17,0,0,1,.74.46Zm-.17,0h0l.06,0,.07,0v0l-.12-.06Zm.17,0a.2.2,0,0,1,0,.08h0l-.06,0Z"/><path class="cls-4" d="M123.39,292.39a4.31,4.31,0,0,1-.15,1q-.13.5-.39,1.18l-1.39,3.84a3,3,0,0,1-.83,1.33,1.83,1.83,0,0,1-1.19.4,1.81,1.81,0,0,1-.71-.13,3,3,0,0,1-.68-.42l.44-1h0l.12.1a3.74,3.74,0,0,0,.41.28.71.71,0,0,0,.36.1.74.74,0,0,0,.55-.29,2.93,2.93,0,0,0,.47-.82l-2.12-5.58h1.31l1.41,3.93.73-2q.18-.54.27-1a3.73,3.73,0,0,0,.09-.81q0-.11,0-.16Zm-4.94,6.15.07,0,0,0Zm.22,0s0,0,0,0l-.13,0,0-.05.12.06Z"/><path class="cls-4" d="M135.05,292.76a2.24,2.24,0,0,1,.67,1.82V298h-1.28v-.5a2.31,2.31,0,0,1-.78.48,2.72,2.72,0,0,1-1,.17,1.87,1.87,0,0,1-1.33-.43,1.53,1.53,0,0,1-.46-1.17,1.47,1.47,0,0,1,.38-1,2.36,2.36,0,0,1,1.09-.64,5.81,5.81,0,0,1,1.7-.22h.41a1.7,1.7,0,0,0-.36-1,1.2,1.2,0,0,0-.91-.31,1.83,1.83,0,0,0-.8.2,2.73,2.73,0,0,0-.77.57l-.69-.88a3.81,3.81,0,0,1,1.13-.73,3.16,3.16,0,0,1,1.19-.25A2.69,2.69,0,0,1,135.05,292.76Zm-1,4a2,2,0,0,0,.42-1.18h-.27a3.77,3.77,0,0,0-1.51.22.74.74,0,0,0-.47.7.53.53,0,0,0,.24.48,1.2,1.2,0,0,0,.65.15A1.22,1.22,0,0,0,134.06,296.74Z"/><path class="cls-4" d="M137.38,292.39h1.35V293a2.13,2.13,0,0,1,1.6-.7,1.58,1.58,0,0,1,1.27.57,2.69,2.69,0,0,1,.48,1.76V298h-1.35v-3.39a1.52,1.52,0,0,0-.23-.93.82.82,0,0,0-.69-.3,1.27,1.27,0,0,0-.54.11.93.93,0,0,0-.4.34,1,1,0,0,0-.15.56V298h-1.35Z"/><path class="cls-4" d="M144.55,297.81a2.66,2.66,0,0,1-1-1.06,3.32,3.32,0,0,1-.35-1.55,3.11,3.11,0,0,1,.36-1.49,2.76,2.76,0,0,1,1-1.06,2.51,2.51,0,0,1,2.68,0,2.76,2.76,0,0,1,1,1.06,3.11,3.11,0,0,1,.36,1.49,3.32,3.32,0,0,1-.35,1.55,2.66,2.66,0,0,1-1,1.06,2.6,2.6,0,0,1-2.71,0Zm2-.94a1.49,1.49,0,0,0,.45-.67,2.89,2.89,0,0,0,.16-1,2.79,2.79,0,0,0-.16-1,1.39,1.39,0,0,0-.45-.64,1.12,1.12,0,0,0-.69-.22,1.07,1.07,0,0,0-.67.22,1.43,1.43,0,0,0-.45.64,2.75,2.75,0,0,0-.16,1,3,3,0,0,0,.16,1,1.48,1.48,0,0,0,.44.67,1,1,0,0,0,.69.23A1.08,1.08,0,0,0,146.6,296.87Z"/><path class="cls-4" d="M154.6,297.49a3.58,3.58,0,0,1-.91.5,3,3,0,0,1-1,.17,1.7,1.7,0,0,1-1.34-.52,2.66,2.66,0,0,1-.46-1.78q0-.32,0-.71l.1-1.68h-1.21l0-1.09h1.25l.08-1.31,1.48-.25,0,.13-.06.08a.6.6,0,0,0-.08.16.83.83,0,0,0,0,.21l-.09,1h1.72l0,1.09h-1.72l-.13,1.59q0,.41,0,.66a2.13,2.13,0,0,0,.18,1,.62.62,0,0,0,.57.3,1.61,1.61,0,0,0,.67-.14,2.9,2.9,0,0,0,.69-.47Z"/><path class="cls-4" d="M156.1,289.9h1.45V290a.33.33,0,0,0-.08.16,1.38,1.38,0,0,0,0,.28V293a2.21,2.21,0,0,1,.68-.51,1.92,1.92,0,0,1,2.18.37,2.61,2.61,0,0,1,.5,1.77V298h-1.36v-3.39a1.62,1.62,0,0,0-.21-.93.68.68,0,0,0-.59-.3,1.11,1.11,0,0,0-.61.18,1.22,1.22,0,0,0-.43.49,1.56,1.56,0,0,0-.16.71V298H156.1Z"/><path class="cls-4" d="M163.42,297.84a2.5,2.5,0,0,1-1-1,3.19,3.19,0,0,1-.36-1.56,3.51,3.51,0,0,1,.34-1.59,2.49,2.49,0,0,1,.94-1,2.58,2.58,0,0,1,1.37-.37,2.38,2.38,0,0,1,1.22.31,2.2,2.2,0,0,1,.86.93,3.24,3.24,0,0,1,.32,1.49q0,.14,0,.4v.16h-3.67a1.88,1.88,0,0,0,.48,1.16,1.28,1.28,0,0,0,.94.39,1.87,1.87,0,0,0,.78-.18,1.69,1.69,0,0,0,.64-.5l.74.74a2.66,2.66,0,0,1-2.12,1A2.92,2.92,0,0,1,163.42,297.84Zm2.34-3.25a1.54,1.54,0,0,0-.14-.65,1.17,1.17,0,0,0-.39-.48,1,1,0,0,0-.59-.18,1.05,1.05,0,0,0-.81.35,1.63,1.63,0,0,0-.39,1Z"/><path class="cls-4" d="M172.88,294.09h0a1.5,1.5,0,0,0-.48-.52,1.15,1.15,0,0,0-.6-.16,1.5,1.5,0,0,0-.77.2,1.41,1.41,0,0,0-.54.58,1.86,1.86,0,0,0-.2.87V298h-1.36v-5.6h1.38v.8a1.62,1.62,0,0,1,.65-.68,1.91,1.91,0,0,1,1-.25,2.34,2.34,0,0,1,.83.16,2.17,2.17,0,0,1,.74.46Zm-.17,0h0l.06,0,.07,0v0l-.12-.06Zm.17,0a.2.2,0,0,1,0,.08h0l-.06,0Z"/><path class="cls-4" d="M182,297.81a2.66,2.66,0,0,1-1-1.06,3.32,3.32,0,0,1-.35-1.55,3.11,3.11,0,0,1,.36-1.49,2.76,2.76,0,0,1,1-1.06,2.51,2.51,0,0,1,2.68,0,2.76,2.76,0,0,1,1,1.06,3.11,3.11,0,0,1,.36,1.49,3.32,3.32,0,0,1-.35,1.55,2.66,2.66,0,0,1-1,1.06,2.6,2.6,0,0,1-2.71,0Zm2-.94a1.49,1.49,0,0,0,.45-.67,2.89,2.89,0,0,0,.16-1,2.79,2.79,0,0,0-.16-1,1.39,1.39,0,0,0-.45-.64,1.12,1.12,0,0,0-.69-.22,1.07,1.07,0,0,0-.67.22,1.43,1.43,0,0,0-.45.64,2.75,2.75,0,0,0-.16,1,3,3,0,0,0,.16,1,1.48,1.48,0,0,0,.44.67,1,1,0,0,0,.69.23A1.08,1.08,0,0,0,184,296.87Z"/><path class="cls-4" d="M187.3,292.39h1.35V293a2.13,2.13,0,0,1,1.6-.7,1.58,1.58,0,0,1,1.27.57,2.69,2.69,0,0,1,.48,1.76V298h-1.35v-3.39a1.52,1.52,0,0,0-.23-.93.82.82,0,0,0-.69-.3,1.27,1.27,0,0,0-.54.11.93.93,0,0,0-.4.34,1,1,0,0,0-.15.56V298H187.3Z"/><path class="cls-4" d="M194.61,297.84a2.5,2.5,0,0,1-1-1,3.19,3.19,0,0,1-.36-1.56,3.51,3.51,0,0,1,.34-1.59,2.49,2.49,0,0,1,.94-1,2.58,2.58,0,0,1,1.37-.37,2.38,2.38,0,0,1,1.22.31,2.2,2.2,0,0,1,.86.93,3.24,3.24,0,0,1,.32,1.49q0,.14,0,.4v.16h-3.67a1.88,1.88,0,0,0,.48,1.16,1.28,1.28,0,0,0,.94.39,1.87,1.87,0,0,0,.78-.18,1.69,1.69,0,0,0,.64-.5l.74.74a2.66,2.66,0,0,1-2.12,1A2.92,2.92,0,0,1,194.61,297.84Zm2.34-3.25a1.54,1.54,0,0,0-.14-.65,1.17,1.17,0,0,0-.39-.48,1,1,0,0,0-.59-.18,1.05,1.05,0,0,0-.81.35,1.63,1.63,0,0,0-.39,1Z"/><path class="cls-4" d="M201.46,298a.87.87,0,0,1-.34-.31.81.81,0,0,1-.12-.43.8.8,0,0,1,.13-.43.94.94,0,0,1,.34-.32.91.91,0,0,1,.46-.12.94.94,0,0,1,.48.13,1,1,0,0,1,.34.33.78.78,0,0,1,.13.42.76.76,0,0,1-.13.43,1,1,0,0,1-.35.32,1,1,0,0,1-.47.12A1,1,0,0,1,201.46,298Zm-.35-6.91V291a1.1,1.1,0,0,1,.23-.76.81.81,0,0,1,.62-.24.82.82,0,0,1,.62.23,1,1,0,0,1,.23.75q0,.11,0,.16l-.31,4.52h-1.08Z"/></g></g></svg>