<svg xmlns="http://www.w3.org/2000/svg" viewBox="0 0 240.5 360.82"><defs><style>.cls-1,.cls-3{fill:#010101;}.cls-1{stroke:#231f20;stroke-miterlimit:10;}.cls-2{fill:#2ab67a;}.cls-4{fill:#231f20;}</style></defs><title>Asset 2</title><g id="Layer_2" data-name="Layer 2"><g id="Layer_1-2" data-name="Layer 1"><path class="cls-1" d="M55.7,91.75H47.18l-4-10H17.82l-4,10H12.5v-5h-6v5H5.3a4.8,4.8,0,0,0-4.8,4.8v29.37a4.84,4.84,0,0,0,4.83,4.83H55.67a4.84,4.84,0,0,0,4.83-4.83V96.55A4.8,4.8,0,0,0,55.7,91.75Zm2.8,34.17a2.84,2.84,0,0,1-2.83,2.83H5.33a2.84,2.84,0,0,1-2.83-2.83V96.55a2.8,2.8,0,0,1,2.8-2.8h9.88l4-10H41.82l4,10H55.7a2.8,2.8,0,0,1,2.8,2.8Z"/><path class="cls-1" d="M30.5,90.75a18,18,0,1,0,18,18A18,18,0,0,0,30.5,90.75Zm0,34a16,16,0,1,1,16-16A16,16,0,0,1,30.5,124.75Z"/><path class="cls-1" d="M30.5,96.75a12,12,0,1,0,12,12A12,12,0,0,0,30.5,96.75Z"/><path class="cls-1" d="M52.5,101.75a2,2,0,1,1,2-2A2,2,0,0,1,52.5,101.75Z"/><path class="cls-2" d="M106.17,85.7a2.25,2.25,0,0,0,2.25-2.25V75a2.25,2.25,0,0,0-4.51,0v8.42A2.25,2.25,0,0,0,106.17,85.7Z"/><path class="cls-3" d="M129.72,97a2.25,2.25,0,0,0-3.86-2.32c-3.21,5.34-9.61,5.12-9.9,5.11a2.25,2.25,0,0,0-.24,4.5h.44C118.07,104.29,125.62,103.84,129.72,97Z"/><path class="cls-3" d="M119.38,37.88a29.14,29.14,0,0,1,3.72.24l.29,0a2.25,2.25,0,0,0,.29-4.49,33.64,33.64,0,0,0-4.29-.28,2.25,2.25,0,1,0,0,4.51Z"/><path class="cls-3" d="M130.76,40.2A30,30,0,0,1,147,56.84a2.25,2.25,0,1,0,4.2-1.63A34.49,34.49,0,0,0,132.52,36a2.25,2.25,0,1,0-1.75,4.15Z"/><path class="cls-3" d="M195,133.58h-9.22a11.77,11.77,0,0,1,0-23.54,2.25,2.25,0,0,0,0-4.51,16.28,16.28,0,1,0,0,32.56H195a41.07,41.07,0,0,1,41,41v1.61a41,41,0,0,1-80.57,10.89h12.65a2.25,2.25,0,0,0,2.25-2.25V167.1a2.25,2.25,0,0,0-2.25-2.25h-6.13v-99A43,43,0,0,0,121.2,22.88V2.25a2.25,2.25,0,0,0-4.51,0V22.88A43,43,0,0,0,76,65.81v99H69.82a2.25,2.25,0,0,0-2.25,2.25v22.25a2.25,2.25,0,0,0,2.25,2.25H83a33.6,33.6,0,0,1-67.13-2.14v-1.33a33.64,33.64,0,0,1,33.61-33.6h7.64a13.88,13.88,0,0,0,2-27.61,14,14,0,0,0-2-.14,2.25,2.25,0,0,0,0,4.51,9.37,9.37,0,0,1,0,18.73H49.43a38.16,38.16,0,0,0-38.11,38.11v1.33A38.09,38.09,0,0,0,70.8,221c.2-.07,1.27-.81,2.52-1.62a92.49,92.49,0,0,1,28.2-11.62c23.06-5.33,45.79-1.76,67.64,10.61,1.37.78,4.61,2.68,4.87,2.73a45.5,45.5,0,0,0,66.47-40.39v-1.61A45.58,45.58,0,0,0,195,133.58ZM80.46,65.81a38.49,38.49,0,0,1,77,0v99H141.3l-2.73-22.3V100.12a13.41,13.41,0,0,0,11.95-13.31V74.56a2.25,2.25,0,0,0-4.35-.82c-.91,2.31-4.1,8.37-7.6,8.5V63.75a15.83,15.83,0,0,0-15.82-15.82H107.26A15.83,15.83,0,0,0,91.44,63.75v2.76c-4.16,3.24-6.75,7.77-6.75,12.78s2.59,9.54,6.75,12.78v14.06h-1.9a2.25,2.25,0,0,0,0,4.51h5.89v5.11a2.25,2.25,0,1,0,4.51,0v-5.11h3.18a15,15,0,0,1,1.61.09v5a2.25,2.25,0,0,0,4.51,0v-3.82a15.41,15.41,0,0,1,7.1,6.26,3.55,3.55,0,0,1,0,3.65,3.71,3.71,0,0,1-3.25,1.9H99.73A2.23,2.23,0,0,0,97.47,126a2.25,2.25,0,0,0,2.25,2.25h.2l-5.5,36.64h-14v-99Zm43.79,87.53a2.25,2.25,0,0,0-2.25,2.25v9.26h-8.33V150.28a2.25,2.25,0,0,0-4.51,0v14.57H99L103.15,137H111a2.25,2.25,0,1,0,0-4.51h-7.14l.65-4.29h8.62a8.17,8.17,0,0,0,7.17-4.17,8.05,8.05,0,0,0-.05-8.18,20,20,0,0,0-17.1-9.76H96V94.79a26.46,26.46,0,0,0,11,2.34c12.27,0,22.26-8,22.26-17.84s-10-17.84-22.26-17.84a26.46,26.46,0,0,0-11,2.34v0a11.32,11.32,0,0,1,11.31-11.31h15.49a11.32,11.32,0,0,1,11.31,11.31v71.88h-8a2.25,2.25,0,0,0,0,4.51h8v2.54c0,.09,2.7,22.17,2.7,22.17H126.5v-9.26A2.25,2.25,0,0,0,124.25,153.34ZM106.95,66c9.79,0,17.75,6,17.75,13.33s-8,13.33-17.75,13.33-17.75-6-17.75-13.33S97.16,66,106.95,66Zm31.61,20.8c2.9,0,5.42-1.79,7.44-4.09v4.14a8.89,8.89,0,0,1-7.44,8.76Zm-66.49,82.6h93.75V187.1H72.08Zm28.23,34.07a99.94,99.94,0,0,0-18.65,6.35,37.85,37.85,0,0,0,5.82-18.17h63.28a45.14,45.14,0,0,0,8.07,16.76A95.57,95.57,0,0,0,100.31,203.42Z"/><path class="cls-4" d="M32.49,254.08l.54.62a2.3,2.3,0,0,1,.54,1.57,2.85,2.85,0,0,1-.36,1.39,2.73,2.73,0,0,1-1.11,1.07,3.79,3.79,0,0,1-1.86.42,4.08,4.08,0,0,1-3.12-1.26l.58-1v0a0,0,0,0,1,0,0,3.12,3.12,0,0,0,1.11.92,3.44,3.44,0,0,0,1.58.34,2.22,2.22,0,0,0,1.47-.5,1.53,1.53,0,0,0,.59-1.22,1.51,1.51,0,0,0-.18-.78,2,2,0,0,0-.66-.62,11.19,11.19,0,0,0-1.44-.72,5.28,5.28,0,0,1-2.1-1.31,2.46,2.46,0,0,1-.63-1.65,2.2,2.2,0,0,1,.82-1.79,3.4,3.4,0,0,1,2.22-.67,3.61,3.61,0,0,1,1.53.33,3.75,3.75,0,0,1,1.24.92l-.62.83,0,0a2.86,2.86,0,0,0-1-.91,3,3,0,0,0-1.3-.26,1.79,1.79,0,0,0-1.24.42,1.34,1.34,0,0,0-.47,1,1.58,1.58,0,0,0,.2.81,2.09,2.09,0,0,0,.73.67,10.07,10.07,0,0,0,1.54.73Zm-4.75,2.72,0,.06C27.64,256.78,27.65,256.76,27.73,256.8Zm.14,0s0,0-.06,0l-.08,0,0-.06.11.06ZM32.44,251s0,0,.06,0l.08,0,0,.06-.1-.06Zm.22.06-.07,0,0,0C32.68,251.08,32.69,251.11,32.65,251.08Z"/><path class="cls-4" d="M36.37,258.16a3.84,3.84,0,0,1-1-2.8,4.48,4.48,0,0,1,.45-2.07,3.16,3.16,0,0,1,2.91-1.78,2.82,2.82,0,0,1,2.15.88,3.67,3.67,0,0,1,.82,2.59q0,.18,0,.53H36.5a3,3,0,0,0,.75,2,2.36,2.36,0,0,0,1.74.69,2.43,2.43,0,0,0,1.89-.82l.64.62A3.15,3.15,0,0,1,39,259.15,3.47,3.47,0,0,1,36.37,258.16Zm4.2-3.55A2.39,2.39,0,0,0,40,253a1.72,1.72,0,0,0-1.37-.6,2,2,0,0,0-1.39.56,2.69,2.69,0,0,0-.74,1.66Z"/><path class="cls-4" d="M44.69,258.16a3.84,3.84,0,0,1-1-2.8,4.48,4.48,0,0,1,.45-2.07,3.16,3.16,0,0,1,2.91-1.78,2.82,2.82,0,0,1,2.15.88,3.67,3.67,0,0,1,.82,2.59q0,.18,0,.53h-5.2a3,3,0,0,0,.75,2,2.36,2.36,0,0,0,1.74.69,2.43,2.43,0,0,0,1.89-.82l.64.62a3.15,3.15,0,0,1-2.56,1.12A3.47,3.47,0,0,1,44.69,258.16Zm4.2-3.55a2.39,2.39,0,0,0-.52-1.62,1.72,1.72,0,0,0-1.37-.6,2,2,0,0,0-1.39.56,2.69,2.69,0,0,0-.74,1.66Z"/><path class="cls-4" d="M51.86,251.68h1.06v.72a2.07,2.07,0,0,1,.66-.65,1.56,1.56,0,0,1,.83-.25,1.26,1.26,0,0,1,.84.3,1.33,1.33,0,0,1,.46.77,1.8,1.8,0,0,1,1.65-1.07,1.22,1.22,0,0,1,1.08.52,2.17,2.17,0,0,1,.33,1.35V259H57.7v-5.18a2.54,2.54,0,0,0-.18-1.18.57.57,0,0,0-.51-.27.8.8,0,0,0-.56.27,2,2,0,0,0-.44.7,2.28,2.28,0,0,0-.17.84V259H54.77v-5.09a2.9,2.9,0,0,0-.17-1.21.65.65,0,0,0-.63-.31.75.75,0,0,0-.49.22,1.57,1.57,0,0,0-.41.61,2.38,2.38,0,0,0-.16.9V259H51.86Z"/><path class="cls-4" d="M66,255.59a1.6,1.6,0,0,1,.57,1.27,2,2,0,0,1-.78,1.64,3.42,3.42,0,0,1-2.25.65,4.4,4.4,0,0,1-3.1-1.15l.64-1.09,0,0,0,0a3.86,3.86,0,0,0,1,1,2.77,2.77,0,0,0,1.44.32,2.54,2.54,0,0,0,1.36-.31,1,1,0,0,0,.5-.86.93.93,0,0,0-.4-.77,5.23,5.23,0,0,0-1.44-.64q-2.75-.78-2.75-2.27a1.57,1.57,0,0,1,.7-1.34,3.41,3.41,0,0,1,2-.5,4.41,4.41,0,0,1,1.67.28,3.59,3.59,0,0,1,1.24.87l-.66.8,0,0a2.3,2.3,0,0,0-1-.81,2.88,2.88,0,0,0-1.26-.3,2.35,2.35,0,0,0-1.13.24.74.74,0,0,0-.44.67.94.94,0,0,0,.45.74,5.39,5.39,0,0,0,1.62.67A5.56,5.56,0,0,1,66,255.59Zm-4.94,1.22.06,0,0,0C61.11,256.85,61.1,256.82,61.11,256.82Zm.21,0s0,0-.14,0l0-.08.1.06Zm4.45-3.33,0,.06-.08-.08C65.64,253.45,65.68,253.46,65.77,253.52Zm.09,0s0,0,0,0l0,0,0,0S65.86,253.54,65.85,253.55Z"/><path class="cls-4" d="M77.48,259v-.93h2.16v-8.78H77.57v-.93h3.23v9.71H83V259Z"/><path class="cls-4" d="M86.14,259v-.93H88v-5.46H86.23v-.93h2.93v6.38h1.71V259Zm1.81-9.09a.79.79,0,0,1-.24-.58.82.82,0,0,1,.23-.59.78.78,0,0,1,.58-.24.85.85,0,0,1,.83.83.78.78,0,0,1-.25.58.81.81,0,0,1-.58.24A.78.78,0,0,1,87.94,249.91Z"/><path class="cls-4" d="M96,255.33l-1,.9V259H93.91V248.36h1.31v.11a.42.42,0,0,0-.12.21,2,2,0,0,0,0,.38v6l3.66-3.39a4.28,4.28,0,0,0,.85.08H100l-3.07,2.9,3.58,4.37-1.49.06Z"/><path class="cls-4" d="M102.93,258.16a3.84,3.84,0,0,1-1-2.8,4.48,4.48,0,0,1,.45-2.07,3.16,3.16,0,0,1,2.91-1.78,2.81,2.81,0,0,1,2.15.88,3.66,3.66,0,0,1,.82,2.59q0,.18,0,.53h-5.2a3,3,0,0,0,.75,2,2.36,2.36,0,0,0,1.74.69,2.43,2.43,0,0,0,1.89-.82l.64.62a3.14,3.14,0,0,1-2.56,1.12A3.47,3.47,0,0,1,102.93,258.16Zm4.2-3.55a2.4,2.4,0,0,0-.52-1.62,1.72,1.72,0,0,0-1.37-.6,2,2,0,0,0-1.39.56,2.69,2.69,0,0,0-.74,1.66Z"/><path class="cls-4" d="M124.11,252.34a3.81,3.81,0,0,1,.82,2.77V259h-1.25v-1.12a2.55,2.55,0,0,1-2.5,1.3,3,3,0,0,1-1.9-.55,1.78,1.78,0,0,1-.69-1.46,2,2,0,0,1,.5-1.34,3.18,3.18,0,0,1,1.34-.89,5.27,5.27,0,0,1,1.85-.31,12.92,12.92,0,0,1,1.65.1,2.55,2.55,0,0,0-.65-1.74,2.36,2.36,0,0,0-1.64-.5,2.72,2.72,0,0,0-1,.21,2.94,2.94,0,0,0-.92.61l-.56-.74a3.53,3.53,0,0,1,2.61-1A3.26,3.26,0,0,1,124.11,252.34Zm-.94,5.26a3,3,0,0,0,.75-2,10.16,10.16,0,0,0-1.55-.11,3.9,3.9,0,0,0-1.92.4,1.31,1.31,0,0,0-.7,1.22q0,1.2,1.55,1.2A2.51,2.51,0,0,0,123.17,257.59Z"/><path class="cls-4" d="M127.29,251.68h1.12V253a3.36,3.36,0,0,1,1.09-1.07,2.63,2.63,0,0,1,1.39-.4,1.88,1.88,0,0,1,1.56.74,3.74,3.74,0,0,1,.58,2.31V259h-1.12v-4.4a2.69,2.69,0,0,0-.37-1.58,1.16,1.16,0,0,0-1-.5,2,2,0,0,0-1,.29,2.36,2.36,0,0,0-.83.81,2.16,2.16,0,0,0-.33,1.18V259h-1.12Z"/><path class="cls-4" d="M149.37,259l-1-2.91h-3.22l-1,2.91H143l3.68-10.14h.13L150.52,259Zm-3.92-3.78h2.62l-1.31-3.81Z"/><path class="cls-4" d="M152.36,259v-.93h2.16v-8.78h-2.06v-.93h3.23v9.71h2.14V259Z"/><path class="cls-4" d="M161,259v-.93h1.87v-5.46h-1.78v-.93H164v6.38h1.71V259Zm1.81-9.09a.79.79,0,0,1-.24-.58.82.82,0,0,1,.23-.59.78.78,0,0,1,.58-.24.85.85,0,0,1,.83.83.78.78,0,0,1-.25.58.81.81,0,0,1-.58.24A.78.78,0,0,1,162.82,249.91Z"/><path class="cls-4" d="M169.49,258.16a3.84,3.84,0,0,1-1-2.8,4.48,4.48,0,0,1,.45-2.07,3.16,3.16,0,0,1,2.91-1.78,2.82,2.82,0,0,1,2.15.88,3.67,3.67,0,0,1,.82,2.59q0,.18,0,.53h-5.2a3,3,0,0,0,.75,2,2.36,2.36,0,0,0,1.74.69,2.43,2.43,0,0,0,1.89-.82l.64.62a3.15,3.15,0,0,1-2.56,1.12A3.47,3.47,0,0,1,169.49,258.16Zm4.2-3.55a2.39,2.39,0,0,0-.52-1.62,1.72,1.72,0,0,0-1.37-.6,2,2,0,0,0-1.39.56,2.69,2.69,0,0,0-.74,1.66Z"/><path class="cls-4" d="M177.21,251.68h1.12V253a3.36,3.36,0,0,1,1.09-1.07,2.63,2.63,0,0,1,1.39-.4,1.88,1.88,0,0,1,1.56.74,3.74,3.74,0,0,1,.58,2.31V259h-1.12v-4.4a2.69,2.69,0,0,0-.37-1.58,1.16,1.16,0,0,0-1-.5,2,2,0,0,0-1,.29,2.36,2.36,0,0,0-.83.81,2.16,2.16,0,0,0-.33,1.18V259h-1.12Z"/><path class="cls-4" d="M193.86,248.36h1.26v.11a.43.43,0,0,0-.12.21,2.15,2.15,0,0,0,0,.38V253a3.39,3.39,0,0,1,1.08-1.07,2.49,2.49,0,0,1,1.32-.4,2,2,0,0,1,1.63.74,3.69,3.69,0,0,1,.59,2.32V259h-1.12v-4.4a2.69,2.69,0,0,0-.37-1.58,1.16,1.16,0,0,0-1-.5,2,2,0,0,0-1,.28,2.32,2.32,0,0,0-.82.8,2.19,2.19,0,0,0-.33,1.19V259h-1.12Z"/><path class="cls-4" d="M207.31,252.34a3.81,3.81,0,0,1,.82,2.77V259h-1.25v-1.12a2.55,2.55,0,0,1-2.5,1.3,3,3,0,0,1-1.9-.55,1.78,1.78,0,0,1-.69-1.46,2,2,0,0,1,.5-1.34,3.18,3.18,0,0,1,1.34-.89,5.27,5.27,0,0,1,1.85-.31,12.92,12.92,0,0,1,1.65.1,2.55,2.55,0,0,0-.65-1.74,2.36,2.36,0,0,0-1.64-.5,2.72,2.72,0,0,0-1,.21,2.94,2.94,0,0,0-.92.61l-.56-.74a3.53,3.53,0,0,1,2.61-1A3.26,3.26,0,0,1,207.31,252.34Zm-.94,5.26a3,3,0,0,0,.75-2,10.16,10.16,0,0,0-1.55-.11,3.9,3.9,0,0,0-1.92.4,1.31,1.31,0,0,0-.7,1.22q0,1.2,1.55,1.2A2.51,2.51,0,0,0,206.37,257.59Z"/><path class="cls-4" d="M215.81,255.59a1.6,1.6,0,0,1,.57,1.27,2,2,0,0,1-.78,1.64,3.42,3.42,0,0,1-2.25.65,4.4,4.4,0,0,1-3.1-1.15l.64-1.09,0,0,0,0a3.86,3.86,0,0,0,1,1,2.76,2.76,0,0,0,1.44.32,2.54,2.54,0,0,0,1.36-.31,1,1,0,0,0,.5-.86.93.93,0,0,0-.4-.77,5.22,5.22,0,0,0-1.44-.64q-2.75-.78-2.75-2.27a1.57,1.57,0,0,1,.7-1.34,3.41,3.41,0,0,1,2-.5,4.4,4.4,0,0,1,1.67.28,3.57,3.57,0,0,1,1.24.87l-.66.8,0,0a2.29,2.29,0,0,0-1-.81,2.87,2.87,0,0,0-1.26-.3,2.34,2.34,0,0,0-1.13.24.74.74,0,0,0-.44.67.94.94,0,0,0,.45.74,5.4,5.4,0,0,0,1.62.67A5.57,5.57,0,0,1,215.81,255.59Zm-4.94,1.22.06,0,0,0C210.87,256.85,210.86,256.82,210.87,256.82Zm.21,0s0,0-.14,0l0-.08.1.06Zm4.45-3.33,0,.06-.08-.08C215.4,253.45,215.44,253.46,215.53,253.52Zm.09,0s0,0,0,0l0,0,0,0S215.62,253.54,215.61,253.55Z"/><path class="cls-4" d="M44.68,271.68v7A3.19,3.19,0,0,1,43.9,281a2.75,2.75,0,0,1-2,.78,3.36,3.36,0,0,1-1.31-.26,2.6,2.6,0,0,1-1-.77l.64-.86,0,0,0,0a2.68,2.68,0,0,0,.71.66,1.76,1.76,0,0,0,.94.24,1.52,1.52,0,0,0,1.2-.51,2.34,2.34,0,0,0,.45-1.57v-6.08H40.79v-.94Zm-4.51,8.11.06,0,0,0C40.17,279.82,40.16,279.79,40.17,279.79Zm.21,0s0,0,0,0l-.1,0,0-.06.1.06Zm3.06-9.94a.79.79,0,0,1-.24-.58.82.82,0,0,1,.23-.59.78.78,0,0,1,.58-.24.85.85,0,0,1,.83.83.77.77,0,0,1-.25.58.81.81,0,0,1-.58.24A.79.79,0,0,1,43.43,269.91Z"/><path class="cls-4" d="M48.79,278.32a4,4,0,0,1-.67-2.55l0-4.08h1.12v4.08a3.11,3.11,0,0,0,.46,1.9,1.45,1.45,0,0,0,1.21.58,1.79,1.79,0,0,0,1.4-.65,2.77,2.77,0,0,0,.57-1.88v-4H54v6.18q0,.38,0,.63a1.63,1.63,0,0,0,.14.5h-1.1a1.52,1.52,0,0,1-.14-.5q0-.25,0-.62a2.56,2.56,0,0,1-1,1,2.61,2.61,0,0,1-1.32.34A2.24,2.24,0,0,1,48.79,278.32Z"/><path class="cls-4" d="M61.89,275.59a1.6,1.6,0,0,1,.57,1.27,2,2,0,0,1-.78,1.64,3.42,3.42,0,0,1-2.25.65,4.4,4.4,0,0,1-3.1-1.15l.64-1.09,0,0,0,0a3.86,3.86,0,0,0,1,1,2.76,2.76,0,0,0,1.44.32,2.54,2.54,0,0,0,1.36-.31,1,1,0,0,0,.5-.86.93.93,0,0,0-.4-.77,5.22,5.22,0,0,0-1.44-.64q-2.75-.78-2.75-2.27a1.57,1.57,0,0,1,.7-1.34,3.41,3.41,0,0,1,2-.5,4.4,4.4,0,0,1,1.67.28,3.57,3.57,0,0,1,1.24.87l-.66.8,0,0a2.29,2.29,0,0,0-1-.81,2.87,2.87,0,0,0-1.26-.3,2.34,2.34,0,0,0-1.13.24.74.74,0,0,0-.44.67.94.94,0,0,0,.45.74,5.4,5.4,0,0,0,1.62.67A5.57,5.57,0,0,1,61.89,275.59ZM57,276.82l.06,0,0,0C57,276.85,56.94,276.82,57,276.82Zm.21,0s0,0-.14,0l0-.08.1.06Zm4.45-3.33,0,.06-.08-.08C61.48,273.45,61.52,273.46,61.61,273.52Zm.09,0s0,0,0,0l0,0,0,0S61.7,273.54,61.69,273.55Z"/><path class="cls-4" d="M70.84,278.32a3.81,3.81,0,0,1-2.32.78,1.93,1.93,0,0,1-1.72-.74,4.37,4.37,0,0,1-.5-2.4q0-.27,0-.94l.14-2.4H64.86v-.94h1.68l.11-2,1.28-.21.16,0,0,.1a2.18,2.18,0,0,0-.17.27,1,1,0,0,0-.07.35l-.18,1.46h2.43v.94h-2.5l-.14,2.48q0,.64,0,.85a3.5,3.5,0,0,0,.3,1.74,1.05,1.05,0,0,0,1,.46,2.15,2.15,0,0,0,.88-.18,4.81,4.81,0,0,0,.91-.56Z"/><path class="cls-4" d="M86.85,275.59a1.6,1.6,0,0,1,.57,1.27,2,2,0,0,1-.78,1.64,3.42,3.42,0,0,1-2.25.65,4.4,4.4,0,0,1-3.1-1.15l.64-1.09,0,0,0,0a3.86,3.86,0,0,0,1,1,2.76,2.76,0,0,0,1.44.32,2.54,2.54,0,0,0,1.36-.31,1,1,0,0,0,.5-.86.93.93,0,0,0-.4-.77,5.22,5.22,0,0,0-1.44-.64q-2.75-.78-2.75-2.27a1.57,1.57,0,0,1,.7-1.34,3.41,3.41,0,0,1,2-.5,4.4,4.4,0,0,1,1.67.28,3.57,3.57,0,0,1,1.24.87l-.66.8,0,0a2.29,2.29,0,0,0-1-.81,2.87,2.87,0,0,0-1.26-.3,2.34,2.34,0,0,0-1.13.24.74.74,0,0,0-.44.67.94.94,0,0,0,.45.74,5.4,5.4,0,0,0,1.62.67A5.57,5.57,0,0,1,86.85,275.59Zm-4.94,1.22.06,0,0,0C81.91,276.85,81.9,276.82,81.91,276.82Zm.21,0s0,0-.14,0l0-.08.1.06Zm4.45-3.33,0,.06-.08-.08C86.44,273.45,86.48,273.46,86.57,273.52Zm.09,0s0,0,0,0l0,0,0,0S86.66,273.54,86.65,273.55Z"/><path class="cls-4" d="M95.8,278.32a3.81,3.81,0,0,1-2.32.78,1.93,1.93,0,0,1-1.72-.74,4.37,4.37,0,0,1-.5-2.4q0-.27,0-.94l.14-2.4H89.81v-.94h1.68l.11-2,1.28-.21.16,0,0,.1a2.18,2.18,0,0,0-.17.27,1,1,0,0,0-.07.35l-.18,1.46h2.43v.94h-2.5l-.14,2.48q0,.64,0,.85a3.5,3.5,0,0,0,.3,1.74,1.05,1.05,0,0,0,1,.46,2.15,2.15,0,0,0,.88-.18,4.81,4.81,0,0,0,.91-.56Z"/><path class="cls-4" d="M99.27,278.64a3.27,3.27,0,0,1-1.2-1.34,4.7,4.7,0,0,1,0-3.94,3.33,3.33,0,0,1,1.2-1.35,3.36,3.36,0,0,1,3.49,0,3.33,3.33,0,0,1,1.2,1.35,4.69,4.69,0,0,1,0,3.94,3.27,3.27,0,0,1-1.2,1.34,3.41,3.41,0,0,1-3.49,0Zm2.86-.85a2.46,2.46,0,0,0,.77-1,3.66,3.66,0,0,0,.28-1.46,3.25,3.25,0,0,0-.61-2,1.92,1.92,0,0,0-3.1,0,3.25,3.25,0,0,0-.61,2,3.64,3.64,0,0,0,.28,1.46,2.46,2.46,0,0,0,.77,1,1.86,1.86,0,0,0,2.22,0Z"/><path class="cls-4" d="M106.6,279v-.93h2.16v-8.78h-2.06v-.93h3.23v9.71h2.14V279Z"/><path class="cls-4" d="M115.41,278.16a3.84,3.84,0,0,1-1-2.8,4.48,4.48,0,0,1,.45-2.07,3.16,3.16,0,0,1,2.91-1.78,2.82,2.82,0,0,1,2.15.88,3.67,3.67,0,0,1,.82,2.59q0,.18,0,.53h-5.2a3,3,0,0,0,.75,2,2.36,2.36,0,0,0,1.74.69,2.43,2.43,0,0,0,1.89-.82l.64.62a3.15,3.15,0,0,1-2.56,1.12A3.47,3.47,0,0,1,115.41,278.16Zm4.2-3.55a2.39,2.39,0,0,0-.52-1.62,1.72,1.72,0,0,0-1.37-.6,2,2,0,0,0-1.39.56,2.69,2.69,0,0,0-.74,1.66Z"/><path class="cls-4" d="M123.13,271.68h1.12V273a3.36,3.36,0,0,1,1.09-1.07,2.63,2.63,0,0,1,1.39-.4,1.88,1.88,0,0,1,1.56.74,3.73,3.73,0,0,1,.58,2.31V279h-1.12v-4.4a2.69,2.69,0,0,0-.37-1.58,1.16,1.16,0,0,0-1-.5,2,2,0,0,0-1,.29,2.37,2.37,0,0,0-.83.81,2.16,2.16,0,0,0-.33,1.18V279h-1.12Z"/><path class="cls-4" d="M144.91,272.34a3.81,3.81,0,0,1,.82,2.77V279h-1.25v-1.12a2.55,2.55,0,0,1-2.5,1.3,3,3,0,0,1-1.9-.55,1.78,1.78,0,0,1-.69-1.46,2,2,0,0,1,.5-1.34,3.18,3.18,0,0,1,1.34-.89,5.27,5.27,0,0,1,1.85-.31,12.92,12.92,0,0,1,1.65.1,2.55,2.55,0,0,0-.65-1.74,2.36,2.36,0,0,0-1.64-.5,2.72,2.72,0,0,0-1,.21,2.94,2.94,0,0,0-.92.61l-.56-.74a3.53,3.53,0,0,1,2.61-1A3.26,3.26,0,0,1,144.91,272.34Zm-.94,5.26a3,3,0,0,0,.75-2,10.16,10.16,0,0,0-1.55-.11,3.9,3.9,0,0,0-1.92.4,1.31,1.31,0,0,0-.7,1.22q0,1.2,1.55,1.2A2.51,2.51,0,0,0,144,277.59Z"/><path class="cls-4" d="M148.2,279v-.93h2.16v-8.78h-2.06v-.93h3.23v9.71h2.14V279Z"/><path class="cls-4" d="M156.52,279v-.93h2.16v-8.78h-2.06v-.93h3.23v9.71H162V279Z"/><path class="cls-4" d="M174.15,278.64a3.27,3.27,0,0,1-1.2-1.34,4.7,4.7,0,0,1,0-3.94,3.33,3.33,0,0,1,1.2-1.35,3.36,3.36,0,0,1,3.49,0,3.33,3.33,0,0,1,1.2,1.35,4.69,4.69,0,0,1,0,3.94,3.27,3.27,0,0,1-1.2,1.34,3.41,3.41,0,0,1-3.49,0Zm2.86-.85a2.46,2.46,0,0,0,.77-1,3.66,3.66,0,0,0,.28-1.46,3.25,3.25,0,0,0-.61-2,1.92,1.92,0,0,0-3.1,0,3.25,3.25,0,0,0-.61,2,3.64,3.64,0,0,0,.28,1.46,2.46,2.46,0,0,0,.77,1,1.86,1.86,0,0,0,2.22,0Z"/><path class="cls-4" d="M181.91,278.32a4,4,0,0,1-.67-2.55l0-4.08h1.12v4.08a3.11,3.11,0,0,0,.46,1.9,1.45,1.45,0,0,0,1.21.58,1.79,1.79,0,0,0,1.4-.65,2.77,2.77,0,0,0,.57-1.88v-4h1.12v6.18q0,.38,0,.63a1.63,1.63,0,0,0,.14.5h-1.1a1.52,1.52,0,0,1-.14-.5q0-.25,0-.62a2.56,2.56,0,0,1-1,1,2.61,2.61,0,0,1-1.32.34A2.24,2.24,0,0,1,181.91,278.32Z"/><path class="cls-4" d="M195.35,273.2v0a3.25,3.25,0,0,0-.78-.58,1.71,1.71,0,0,0-.73-.14,2.18,2.18,0,0,0-1.09.29,2.16,2.16,0,0,0-.83.87,3,3,0,0,0-.32,1.46V279h-1.17v-7.33h1.2l0,1.34a2.39,2.39,0,0,1,.94-1.12,2.54,2.54,0,0,1,1.38-.4,2.57,2.57,0,0,1,1.94.8Zm-.18.06s0,0,0,0l.1,0,0,.08-.11-.06Zm.23,0-.09,0,0,0C195.43,273.28,195.44,273.31,195.41,273.3Z"/><path class="cls-4" d="M40.37,299v-.93h1.87v-5.46H40.47v-.93H43.4v6.38h1.71V299Zm1.81-9.09a.79.79,0,0,1-.24-.58.82.82,0,0,1,.23-.59.78.78,0,0,1,.58-.24.85.85,0,0,1,.83.83.77.77,0,0,1-.25.58.81.81,0,0,1-.58.24A.78.78,0,0,1,42.18,289.91Z"/><path class="cls-4" d="M47.7,291.68h1.06v.72a2.07,2.07,0,0,1,.66-.65,1.56,1.56,0,0,1,.83-.25,1.26,1.26,0,0,1,.84.3,1.33,1.33,0,0,1,.46.77,1.8,1.8,0,0,1,1.65-1.07,1.22,1.22,0,0,1,1.08.52,2.17,2.17,0,0,1,.33,1.35V299H53.54v-5.18a2.54,2.54,0,0,0-.18-1.18.57.57,0,0,0-.51-.27.8.8,0,0,0-.56.27,2,2,0,0,0-.44.7,2.28,2.28,0,0,0-.17.84V299H50.61v-5.09a2.9,2.9,0,0,0-.17-1.21.65.65,0,0,0-.63-.31.75.75,0,0,0-.49.22,1.57,1.57,0,0,0-.41.61,2.38,2.38,0,0,0-.16.9V299H47.7Z"/><path class="cls-4" d="M61.71,292.34a3.81,3.81,0,0,1,.82,2.77V299H61.29v-1.12a2.55,2.55,0,0,1-2.5,1.3,3,3,0,0,1-1.9-.55,1.78,1.78,0,0,1-.69-1.46,2,2,0,0,1,.5-1.34,3.17,3.17,0,0,1,1.34-.89,5.27,5.27,0,0,1,1.85-.31,12.93,12.93,0,0,1,1.65.1,2.56,2.56,0,0,0-.65-1.74,2.36,2.36,0,0,0-1.64-.5,2.72,2.72,0,0,0-1,.21,2.94,2.94,0,0,0-.92.61l-.56-.74a3.53,3.53,0,0,1,2.61-1A3.26,3.26,0,0,1,61.71,292.34Zm-.94,5.26a3,3,0,0,0,.75-2,10.18,10.18,0,0,0-1.55-.11,3.89,3.89,0,0,0-1.92.4,1.31,1.31,0,0,0-.7,1.22q0,1.2,1.55,1.2A2.51,2.51,0,0,0,60.77,297.59Z"/><path class="cls-4" d="M70.92,292.42a2.29,2.29,0,0,0-1.28.34,2.64,2.64,0,0,1,.27,1.2,2.72,2.72,0,0,1-.31,1.3,2.28,2.28,0,0,1-.9.92,2.66,2.66,0,0,1-1.35.34,2.88,2.88,0,0,1-1.14-.22,1.09,1.09,0,0,0-.29.67c0,.26.16.44.49.55a6.13,6.13,0,0,0,1.75.17,3.45,3.45,0,0,1,2.12.47,1.69,1.69,0,0,1,.57,1.38,2,2,0,0,1-.77,1.58,3.74,3.74,0,0,1-2.4.63,5.22,5.22,0,0,1-2.46-.48,1.52,1.52,0,0,1-.89-1.41,1.58,1.58,0,0,1,.32-1,2.24,2.24,0,0,1,.82-.66,1.11,1.11,0,0,1-.53-1,2,2,0,0,1,.66-1.34A2.31,2.31,0,0,1,65,295a2.78,2.78,0,0,1-.21-1.09,2.69,2.69,0,0,1,.31-1.29,2.29,2.29,0,0,1,.9-.92,2.67,2.67,0,0,1,1.35-.34,2.44,2.44,0,0,1,1.87.75,2.71,2.71,0,0,1,.79-.52,2.35,2.35,0,0,1,.9-.17l.27,0,.14.94Zm-1.26,6.7a.86.86,0,0,0-.54-.32,5.14,5.14,0,0,0-1.2-.1,6.57,6.57,0,0,1-1.84-.21,1.64,1.64,0,0,0-.54.53,1.47,1.47,0,0,0-.15.72.93.93,0,0,0,.61.85,3.87,3.87,0,0,0,1.7.3,3.14,3.14,0,0,0,1.58-.31,1,1,0,0,0,.52-.86A1.12,1.12,0,0,0,69.66,299.11Zm-1.17-4a1.64,1.64,0,0,0,0-2.27,1.64,1.64,0,0,0-2.29,0,1.64,1.64,0,0,0,0,2.27,1.64,1.64,0,0,0,2.29,0Z"/><path class="cls-4" d="M73.81,298.16a3.84,3.84,0,0,1-1-2.8,4.48,4.48,0,0,1,.45-2.07,3.16,3.16,0,0,1,2.91-1.78,2.81,2.81,0,0,1,2.15.88,3.66,3.66,0,0,1,.82,2.59q0,.18,0,.53h-5.2a3,3,0,0,0,.75,2,2.36,2.36,0,0,0,1.74.69,2.43,2.43,0,0,0,1.89-.82L79,298a3.14,3.14,0,0,1-2.56,1.12A3.47,3.47,0,0,1,73.81,298.16Zm4.2-3.55a2.4,2.4,0,0,0-.52-1.62,1.72,1.72,0,0,0-1.37-.6,2,2,0,0,0-1.39.56,2.69,2.69,0,0,0-.74,1.66Z"/><path class="cls-4" d="M86.85,295.59a1.6,1.6,0,0,1,.57,1.27,2,2,0,0,1-.78,1.64,3.42,3.42,0,0,1-2.25.65,4.4,4.4,0,0,1-3.1-1.15l.64-1.09,0,0,0,0a3.86,3.86,0,0,0,1,1,2.76,2.76,0,0,0,1.44.32,2.54,2.54,0,0,0,1.36-.31,1,1,0,0,0,.5-.86.93.93,0,0,0-.4-.77,5.22,5.22,0,0,0-1.44-.64q-2.75-.78-2.75-2.27a1.57,1.57,0,0,1,.7-1.34,3.41,3.41,0,0,1,2-.5,4.4,4.4,0,0,1,1.67.28,3.57,3.57,0,0,1,1.24.87l-.66.8,0,0a2.29,2.29,0,0,0-1-.81,2.87,2.87,0,0,0-1.26-.3,2.34,2.34,0,0,0-1.13.24.74.74,0,0,0-.44.67.94.94,0,0,0,.45.74,5.4,5.4,0,0,0,1.62.67A5.57,5.57,0,0,1,86.85,295.59Zm-4.94,1.22.06,0,0,0C81.91,296.85,81.9,296.82,81.91,296.82Zm.21,0s0,0-.14,0l0-.08.1.06Zm4.45-3.33,0,.06-.08-.08C86.44,293.45,86.48,293.46,86.57,293.52Zm.09,0s0,0,0,0l0,0,0,0S86.66,293.54,86.65,293.55Z"/><path class="cls-4" d="M103.83,293.2v0a3.25,3.25,0,0,0-.78-.58,1.71,1.71,0,0,0-.73-.14,2.18,2.18,0,0,0-1.09.29,2.16,2.16,0,0,0-.83.87,3,3,0,0,0-.32,1.46V299H98.92v-7.33h1.2l0,1.34a2.39,2.39,0,0,1,.94-1.12,2.54,2.54,0,0,1,1.38-.4,2.57,2.57,0,0,1,1.94.8Zm-.18.06s0,0,0,0l.1,0,0,.08-.11-.06Zm.23,0-.09,0,0,0C103.91,293.28,103.92,293.31,103.89,293.3Z"/><path class="cls-4" d="M107.09,298.16a3.84,3.84,0,0,1-1-2.8,4.48,4.48,0,0,1,.45-2.07,3.16,3.16,0,0,1,2.91-1.78,2.81,2.81,0,0,1,2.15.88,3.66,3.66,0,0,1,.82,2.59q0,.18,0,.53h-5.2a3,3,0,0,0,.75,2,2.36,2.36,0,0,0,1.74.69,2.43,2.43,0,0,0,1.89-.82l.64.62a3.14,3.14,0,0,1-2.56,1.12A3.47,3.47,0,0,1,107.09,298.16Zm4.2-3.55a2.4,2.4,0,0,0-.52-1.62,1.72,1.72,0,0,0-1.37-.6,2,2,0,0,0-1.39.56,2.69,2.69,0,0,0-.74,1.66Z"/><path class="cls-4" d="M120.84,292.42a2.29,2.29,0,0,0-1.28.34,2.64,2.64,0,0,1,.27,1.2,2.72,2.72,0,0,1-.31,1.3,2.28,2.28,0,0,1-.9.92,2.66,2.66,0,0,1-1.35.34,2.88,2.88,0,0,1-1.14-.22,1.09,1.09,0,0,0-.29.67c0,.26.16.44.49.55a6.13,6.13,0,0,0,1.75.17,3.45,3.45,0,0,1,2.12.47,1.69,1.69,0,0,1,.57,1.38,2,2,0,0,1-.77,1.58,3.74,3.74,0,0,1-2.4.63,5.22,5.22,0,0,1-2.46-.48,1.52,1.52,0,0,1-.89-1.41,1.58,1.58,0,0,1,.32-1,2.24,2.24,0,0,1,.82-.66,1.11,1.11,0,0,1-.53-1,2,2,0,0,1,.66-1.34,2.31,2.31,0,0,1-.61-.85,2.78,2.78,0,0,1-.21-1.09,2.69,2.69,0,0,1,.31-1.29,2.29,2.29,0,0,1,.9-.92,2.67,2.67,0,0,1,1.35-.34,2.44,2.44,0,0,1,1.87.75,2.71,2.71,0,0,1,.79-.52,2.35,2.35,0,0,1,.9-.17l.27,0,.14.94Zm-1.26,6.7a.86.86,0,0,0-.54-.32,5.14,5.14,0,0,0-1.2-.1,6.57,6.57,0,0,1-1.84-.21,1.64,1.64,0,0,0-.54.53,1.47,1.47,0,0,0-.15.72.93.93,0,0,0,.61.85,3.87,3.87,0,0,0,1.7.3,3.14,3.14,0,0,0,1.58-.31,1,1,0,0,0,.52-.86A1.12,1.12,0,0,0,119.58,299.11Zm-1.17-4a1.64,1.64,0,0,0,0-2.27,1.64,1.64,0,0,0-2.29,0,1.64,1.64,0,0,0,0,2.27,1.64,1.64,0,0,0,2.29,0Z"/><path class="cls-4" d="M128.27,292.34a3.81,3.81,0,0,1,.82,2.77V299h-1.25v-1.12a2.55,2.55,0,0,1-2.5,1.3,3,3,0,0,1-1.9-.55,1.78,1.78,0,0,1-.69-1.46,2,2,0,0,1,.5-1.34,3.18,3.18,0,0,1,1.34-.89,5.27,5.27,0,0,1,1.85-.31,12.92,12.92,0,0,1,1.65.1,2.55,2.55,0,0,0-.65-1.74,2.36,2.36,0,0,0-1.64-.5,2.72,2.72,0,0,0-1,.21,2.94,2.94,0,0,0-.92.61l-.56-.74a3.53,3.53,0,0,1,2.61-1A3.26,3.26,0,0,1,128.27,292.34Zm-.94,5.26a3,3,0,0,0,.75-2,10.16,10.16,0,0,0-1.55-.11,3.9,3.9,0,0,0-1.92.4,1.31,1.31,0,0,0-.7,1.22q0,1.2,1.55,1.2A2.51,2.51,0,0,0,127.33,297.59Z"/><path class="cls-4" d="M137.11,293.2v0a3.25,3.25,0,0,0-.78-.58,1.71,1.71,0,0,0-.73-.14,2.18,2.18,0,0,0-1.09.29,2.15,2.15,0,0,0-.83.87,3,3,0,0,0-.32,1.46V299H132.2v-7.33h1.2l0,1.34a2.38,2.38,0,0,1,.94-1.12,2.54,2.54,0,0,1,1.38-.4,2.57,2.57,0,0,1,1.94.8Zm-.18.06s0,0,0,0l.1,0,0,.08-.11-.06Zm.23,0-.09,0,0,0C137.19,293.28,137.2,293.31,137.17,293.3Z"/><path class="cls-4" d="M140.89,298.71a3.18,3.18,0,0,1-1.12-1.32,4.79,4.79,0,0,1-.43-2.13,4.48,4.48,0,0,1,.45-2.11,3,3,0,0,1,1.15-1.26,2.92,2.92,0,0,1,1.49-.41,2.43,2.43,0,0,1,1.29.34,2.17,2.17,0,0,1,.84.93v-4.4h1.22v.11a.42.42,0,0,0-.12.21,2,2,0,0,0,0,.38l0,8.8c0,.26,0,.47,0,.63a1.66,1.66,0,0,0,.14.5h-1.14a1.63,1.63,0,0,1-.14-.5q0-.25,0-.63a2.68,2.68,0,0,1-.9,1,2.3,2.3,0,0,1-1.24.34A2.68,2.68,0,0,1,140.89,298.71Zm3.1-1.35a4,4,0,0,0,.46-2.06,3.8,3.8,0,0,0-.5-2.08,1.68,1.68,0,0,0-1.51-.78,1.7,1.7,0,0,0-1.47.71,3.27,3.27,0,0,0-.51,1.94,4.05,4.05,0,0,0,.54,2.23,1.73,1.73,0,0,0,1.54.82A1.57,1.57,0,0,0,144,297.36Z"/><path class="cls-4" d="M148.53,299v-.93h1.87v-5.46h-1.78v-.93h2.93v6.38h1.71V299Zm1.81-9.09a.79.79,0,0,1-.24-.58.82.82,0,0,1,.23-.59.78.78,0,0,1,.58-.24.85.85,0,0,1,.83.83.77.77,0,0,1-.25.58.81.81,0,0,1-.58.24A.78.78,0,0,1,150.34,289.91Z"/><path class="cls-4" d="M156.41,291.68h1.12V293a3.36,3.36,0,0,1,1.09-1.07,2.63,2.63,0,0,1,1.39-.4,1.88,1.88,0,0,1,1.56.74,3.74,3.74,0,0,1,.58,2.31V299H161v-4.4a2.69,2.69,0,0,0-.37-1.58,1.16,1.16,0,0,0-1-.5,2,2,0,0,0-1,.29,2.36,2.36,0,0,0-.83.81,2.16,2.16,0,0,0-.33,1.18V299h-1.12Z"/><path class="cls-4" d="M170.76,292.42a2.29,2.29,0,0,0-1.28.34,2.64,2.64,0,0,1,.27,1.2,2.72,2.72,0,0,1-.31,1.3,2.28,2.28,0,0,1-.9.92,2.66,2.66,0,0,1-1.35.34,2.88,2.88,0,0,1-1.14-.22,1.09,1.09,0,0,0-.29.67c0,.26.16.44.49.55a6.13,6.13,0,0,0,1.75.17,3.45,3.45,0,0,1,2.12.47,1.69,1.69,0,0,1,.57,1.38,2,2,0,0,1-.77,1.58,3.74,3.74,0,0,1-2.4.63,5.22,5.22,0,0,1-2.46-.48,1.52,1.52,0,0,1-.89-1.41,1.58,1.58,0,0,1,.32-1,2.24,2.24,0,0,1,.82-.66,1.11,1.11,0,0,1-.53-1,2,2,0,0,1,.66-1.34,2.31,2.31,0,0,1-.61-.85,2.78,2.78,0,0,1-.21-1.09,2.69,2.69,0,0,1,.31-1.29,2.29,2.29,0,0,1,.9-.92,2.67,2.67,0,0,1,1.35-.34,2.44,2.44,0,0,1,1.87.75,2.71,2.71,0,0,1,.79-.52,2.35,2.35,0,0,1,.9-.17l.27,0,.14.94Zm-1.26,6.7a.86.86,0,0,0-.54-.32,5.14,5.14,0,0,0-1.2-.1,6.57,6.57,0,0,1-1.84-.21,1.64,1.64,0,0,0-.54.53,1.47,1.47,0,0,0-.15.72.93.93,0,0,0,.61.85,3.87,3.87,0,0,0,1.7.3,3.14,3.14,0,0,0,1.58-.31,1,1,0,0,0,.52-.86A1.12,1.12,0,0,0,169.5,299.11Zm-1.17-4a1.64,1.64,0,0,0,0-2.27,1.64,1.64,0,0,0-2.29,0,1.64,1.64,0,0,0,0,2.27,1.64,1.64,0,0,0,2.29,0Z"/><path class="cls-4" d="M187.32,298.32a3.81,3.81,0,0,1-2.32.78,1.93,1.93,0,0,1-1.72-.74,4.37,4.37,0,0,1-.5-2.4c0-.18,0-.5,0-.94l.14-2.4h-1.62v-.94H183l.11-2,1.28-.21.16,0,0,.1a2.3,2.3,0,0,0-.17.27,1,1,0,0,0-.07.35l-.18,1.46h2.43v.94h-2.5l-.14,2.48q0,.64,0,.85a3.5,3.5,0,0,0,.3,1.74,1.05,1.05,0,0,0,1,.46,2.15,2.15,0,0,0,.88-.18,4.78,4.78,0,0,0,.91-.56Z"/><path class="cls-4" d="M190.79,298.64a3.27,3.27,0,0,1-1.2-1.34,4.7,4.7,0,0,1,0-3.94,3.33,3.33,0,0,1,1.2-1.35,3.36,3.36,0,0,1,3.49,0,3.33,3.33,0,0,1,1.2,1.35,4.69,4.69,0,0,1,0,3.94,3.27,3.27,0,0,1-1.2,1.34,3.41,3.41,0,0,1-3.49,0Zm2.86-.85a2.46,2.46,0,0,0,.77-1,3.66,3.66,0,0,0,.28-1.46,3.25,3.25,0,0,0-.61-2,1.92,1.92,0,0,0-3.1,0,3.25,3.25,0,0,0-.61,2,3.64,3.64,0,0,0,.28,1.46,2.46,2.46,0,0,0,.77,1,1.86,1.86,0,0,0,2.22,0Z"/><path class="cls-4" d="M70.82,311.68a8.54,8.54,0,0,1-.3,1.3q-.2.64-.57,1.7l-1.82,5.15a3.22,3.22,0,0,1-1,1.49,2.22,2.22,0,0,1-1.41.46,2.34,2.34,0,0,1-1.68-.62l.5-.78,0,0,0,0a1.67,1.67,0,0,0,.54.35,1.84,1.84,0,0,0,.67.11,1.18,1.18,0,0,0,.94-.42,4.51,4.51,0,0,0,.69-1.38l-3-7.36h1.2l2.27,5.86,1-2.94q.35-1.1.52-1.69a8,8,0,0,0,.25-1.22Zm-6.26,8.61.06,0,0,0C64.55,320.3,64.53,320.28,64.56,320.29Zm.22,0a0,0,0,0,1,0,0l-.13,0,.06-.08.1.06Z"/><path class="cls-4" d="M74.31,318.64a3.27,3.27,0,0,1-1.2-1.34,4.69,4.69,0,0,1,0-3.94,3.33,3.33,0,0,1,1.2-1.35,3.36,3.36,0,0,1,3.49,0,3.33,3.33,0,0,1,1.2,1.35,4.7,4.7,0,0,1,0,3.94,3.27,3.27,0,0,1-1.2,1.34,3.41,3.41,0,0,1-3.49,0Zm2.86-.85a2.46,2.46,0,0,0,.77-1,3.66,3.66,0,0,0,.28-1.46,3.25,3.25,0,0,0-.61-2,1.92,1.92,0,0,0-3.1,0,3.25,3.25,0,0,0-.61,2,3.66,3.66,0,0,0,.28,1.46,2.45,2.45,0,0,0,.77,1,1.86,1.86,0,0,0,2.22,0Z"/><path class="cls-4" d="M82.07,318.32a4,4,0,0,1-.67-2.55l0-4.08h1.12v4.08a3.11,3.11,0,0,0,.46,1.9,1.45,1.45,0,0,0,1.21.58,1.79,1.79,0,0,0,1.4-.65,2.77,2.77,0,0,0,.57-1.88v-4h1.12v6.18q0,.38,0,.63a1.63,1.63,0,0,0,.14.5h-1.1a1.52,1.52,0,0,1-.14-.5q0-.25,0-.62a2.56,2.56,0,0,1-1,1,2.61,2.61,0,0,1-1.32.34A2.24,2.24,0,0,1,82.07,318.32Z"/><path class="cls-4" d="M95.51,313.2v0a3.25,3.25,0,0,0-.78-.58,1.71,1.71,0,0,0-.73-.14,2.18,2.18,0,0,0-1.09.29,2.16,2.16,0,0,0-.83.87,3,3,0,0,0-.32,1.46V319H90.6v-7.33h1.2l0,1.34a2.39,2.39,0,0,1,.94-1.12,2.54,2.54,0,0,1,1.38-.4,2.57,2.57,0,0,1,1.94.8Zm-.18.06s0,0,0,0l.1,0,0,.08-.11-.06Zm.23,0-.09,0,0,0C95.59,313.28,95.6,313.31,95.57,313.3Z"/><path class="cls-4" d="M111.81,315.59a1.6,1.6,0,0,1,.57,1.27,2,2,0,0,1-.78,1.64,3.42,3.42,0,0,1-2.25.65,4.4,4.4,0,0,1-3.1-1.15l.64-1.09,0,0,0,0a3.86,3.86,0,0,0,1,1,2.76,2.76,0,0,0,1.44.32,2.54,2.54,0,0,0,1.36-.31,1,1,0,0,0,.5-.86.93.93,0,0,0-.4-.77,5.22,5.22,0,0,0-1.44-.64q-2.75-.78-2.75-2.27a1.57,1.57,0,0,1,.7-1.34,3.41,3.41,0,0,1,2-.5,4.4,4.4,0,0,1,1.67.28,3.57,3.57,0,0,1,1.24.87l-.66.8,0,0a2.29,2.29,0,0,0-1-.81,2.87,2.87,0,0,0-1.26-.3,2.34,2.34,0,0,0-1.13.24.74.74,0,0,0-.44.67.94.94,0,0,0,.45.74,5.4,5.4,0,0,0,1.62.67A5.57,5.57,0,0,1,111.81,315.59Zm-4.94,1.22.06,0,0,0C106.87,316.85,106.86,316.82,106.87,316.82Zm.21,0s0,0-.14,0l0-.08.1.06Zm4.45-3.33,0,.06-.08-.08C111.4,313.45,111.44,313.46,111.53,313.52Zm.09,0s0,0,0,0l0,0,0,0S111.62,313.54,111.61,313.55Z"/><path class="cls-4" d="M115.41,318.16a3.84,3.84,0,0,1-1-2.8,4.48,4.48,0,0,1,.45-2.07,3.16,3.16,0,0,1,2.91-1.78,2.82,2.82,0,0,1,2.15.88,3.67,3.67,0,0,1,.82,2.59q0,.18,0,.53h-5.2a3,3,0,0,0,.75,2,2.36,2.36,0,0,0,1.74.69,2.43,2.43,0,0,0,1.89-.82l.64.62a3.15,3.15,0,0,1-2.56,1.12A3.47,3.47,0,0,1,115.41,318.16Zm4.2-3.55a2.39,2.39,0,0,0-.52-1.62,1.72,1.72,0,0,0-1.37-.6,2,2,0,0,0-1.39.56,2.69,2.69,0,0,0-.74,1.66Z"/><path class="cls-4" d="M128.27,312.34a3.81,3.81,0,0,1,.82,2.77V319h-1.25v-1.12a2.55,2.55,0,0,1-2.5,1.3,3,3,0,0,1-1.9-.55,1.78,1.78,0,0,1-.69-1.46,2,2,0,0,1,.5-1.34,3.18,3.18,0,0,1,1.34-.89,5.27,5.27,0,0,1,1.85-.31,12.92,12.92,0,0,1,1.65.1,2.55,2.55,0,0,0-.65-1.74,2.36,2.36,0,0,0-1.64-.5,2.72,2.72,0,0,0-1,.21,2.94,2.94,0,0,0-.92.61l-.56-.74a3.53,3.53,0,0,1,2.61-1A3.26,3.26,0,0,1,128.27,312.34Zm-.94,5.26a3,3,0,0,0,.75-2,10.16,10.16,0,0,0-1.55-.11,3.9,3.9,0,0,0-1.92.4,1.31,1.31,0,0,0-.7,1.22q0,1.2,1.55,1.2A2.51,2.51,0,0,0,127.33,317.59Z"/><path class="cls-4" d="M137.11,313.2v0a3.25,3.25,0,0,0-.78-.58,1.71,1.71,0,0,0-.73-.14,2.18,2.18,0,0,0-1.09.29,2.15,2.15,0,0,0-.83.87,3,3,0,0,0-.32,1.46V319H132.2v-7.33h1.2l0,1.34a2.38,2.38,0,0,1,.94-1.12,2.54,2.54,0,0,1,1.38-.4,2.57,2.57,0,0,1,1.94.8Zm-.18.06s0,0,0,0l.1,0,0,.08-.11-.06Zm.23,0-.09,0,0,0C137.19,313.28,137.2,313.31,137.17,313.3Z"/><path class="cls-4" d="M145.14,317.24l.67.78a3.47,3.47,0,0,1-2.64,1.15,3.61,3.61,0,0,1-1.89-.5,3.49,3.49,0,0,1-1.3-1.37,4,4,0,0,1-.47-2,4,4,0,0,1,.47-2,3.51,3.51,0,0,1,1.3-1.36,3.59,3.59,0,0,1,1.87-.5,3.52,3.52,0,0,1,1.6.36,3.07,3.07,0,0,1,1.17,1l-.72.7,0,0a2.92,2.92,0,0,0-1-.86,2.66,2.66,0,0,0-1.21-.25,2.11,2.11,0,0,0-1.16.34,2.45,2.45,0,0,0-.86,1,3.12,3.12,0,0,0-.32,1.44,3.24,3.24,0,0,0,.33,1.47,2.5,2.5,0,0,0,.91,1,2.39,2.39,0,0,0,1.3.37A2.47,2.47,0,0,0,145.14,317.24Zm0-3.58-.06.06-.08-.08C145,313.57,145.06,313.58,145.16,313.65Zm.07,0-.07,0,0,0C145.24,313.69,145.26,313.72,145.23,313.7Z"/><path class="cls-4" d="M148.1,308.36h1.26v.11a.43.43,0,0,0-.12.21,2.15,2.15,0,0,0,0,.38V313a3.39,3.39,0,0,1,1.08-1.07,2.49,2.49,0,0,1,1.32-.4,2,2,0,0,1,1.63.74,3.69,3.69,0,0,1,.59,2.32V319h-1.12v-4.4a2.69,2.69,0,0,0-.37-1.58,1.16,1.16,0,0,0-1-.5,2,2,0,0,0-1,.28,2.32,2.32,0,0,0-.82.8,2.19,2.19,0,0,0-.33,1.19V319H148.1Z"/><path class="cls-4" d="M158.41,318.9a.89.89,0,0,1,0-1.28.89.89,0,0,1,.66-.27.91.91,0,0,1,0,1.82A.89.89,0,0,1,158.41,318.9Z"/><path class="cls-4" d="M166.73,318.9a.89.89,0,0,1,0-1.28.89.89,0,0,1,.66-.27.91.91,0,0,1,0,1.82A.9.9,0,0,1,166.73,318.9Z"/><path class="cls-4" d="M175,318.9a.89.89,0,0,1,0-1.28.89.89,0,0,1,.66-.27.91.91,0,0,1,0,1.82A.9.9,0,0,1,175,318.9Z"/><path class="cls-4" d="M53.75,358v-8.41H51V348h7.34v1.55H55.58V358Z"/><path class="cls-4" d="M65.75,352.79h0a2,2,0,0,0-.64-.69,1.53,1.53,0,0,0-.8-.21,2,2,0,0,0-1,.27,1.88,1.88,0,0,0-.72.77,2.47,2.47,0,0,0-.26,1.16V358H60.47v-7.47h1.84v1.07a2.16,2.16,0,0,1,.87-.91,2.54,2.54,0,0,1,1.29-.33,3.13,3.13,0,0,1,1.11.21,2.89,2.89,0,0,1,1,.61Zm-.23,0h0l.08,0,.09.05v0l-.16-.08Zm.23,0a.27.27,0,0,1,0,.11h0l-.08,0Z"/><path class="cls-4" d="M74.63,350.53a5.73,5.73,0,0,1-.2,1.3q-.18.66-.52,1.57l-1.86,5.13a4,4,0,0,1-1.11,1.77,2.44,2.44,0,0,1-1.58.53,2.41,2.41,0,0,1-.94-.18,4,4,0,0,1-.9-.56l.59-1.28v0l0,0,.16.13a5,5,0,0,0,.54.38.94.94,0,0,0,.48.13,1,1,0,0,0,.73-.39,3.9,3.9,0,0,0,.63-1.09l-2.83-7.44h1.75l1.88,5.24,1-2.67q.23-.73.36-1.27a5,5,0,0,0,.12-1.08c0-.1,0-.17,0-.22ZM68,358.72l.09,0,0,0S68,358.73,68,358.72Zm.3.05s0,0,0,0l-.17-.05,0-.07.16.08Z"/><path class="cls-4" d="M90.19,351a3,3,0,0,1,.89,2.43V358H89.37v-.67a3.08,3.08,0,0,1-1,.64,3.63,3.63,0,0,1-1.3.23,2.49,2.49,0,0,1-1.77-.57,2,2,0,0,1-.61-1.56,2,2,0,0,1,.5-1.36,3.14,3.14,0,0,1,1.45-.86,7.75,7.75,0,0,1,2.27-.29h.55a2.26,2.26,0,0,0-.48-1.39,1.6,1.6,0,0,0-1.21-.42,2.45,2.45,0,0,0-1.07.27,3.62,3.62,0,0,0-1,.75l-.91-1.18a5.08,5.08,0,0,1,1.51-1,4.21,4.21,0,0,1,1.59-.33A3.59,3.59,0,0,1,90.19,351Zm-1.32,5.3a2.62,2.62,0,0,0,.55-1.58h-.36a5,5,0,0,0-2,.3,1,1,0,0,0-.63.94.71.71,0,0,0,.32.64,1.6,1.6,0,0,0,.87.2A1.63,1.63,0,0,0,88.87,356.32Z"/><path class="cls-4" d="M93.29,350.53h1.8v.77a2.84,2.84,0,0,1,2.13-.93,2.11,2.11,0,0,1,1.7.75,3.59,3.59,0,0,1,.64,2.35V358h-1.8v-4.52a2,2,0,0,0-.31-1.24,1.09,1.09,0,0,0-.92-.4,1.7,1.7,0,0,0-.71.15,1.24,1.24,0,0,0-.53.46,1.34,1.34,0,0,0-.2.75V358h-1.8Z"/><path class="cls-4" d="M102.86,357.74a3.55,3.55,0,0,1-1.28-1.41,4.43,4.43,0,0,1-.47-2.06,4.14,4.14,0,0,1,.48-2,3.67,3.67,0,0,1,1.29-1.41,3.35,3.35,0,0,1,3.57,0,3.68,3.68,0,0,1,1.29,1.41,4.15,4.15,0,0,1,.48,2,4.43,4.43,0,0,1-.47,2.06,3.55,3.55,0,0,1-1.28,1.41,3.46,3.46,0,0,1-3.61,0Zm2.73-1.25a2,2,0,0,0,.61-.89,3.86,3.86,0,0,0,.21-1.33,3.71,3.71,0,0,0-.21-1.32,1.86,1.86,0,0,0-.61-.85,1.5,1.5,0,0,0-.93-.3,1.43,1.43,0,0,0-.89.3,1.91,1.91,0,0,0-.6.86,3.65,3.65,0,0,0-.21,1.32,3.93,3.93,0,0,0,.21,1.34,2,2,0,0,0,.59.89,1.4,1.4,0,0,0,.91.31A1.44,1.44,0,0,0,105.59,356.49Z"/><path class="cls-4" d="M116.25,357.32A4.76,4.76,0,0,1,115,358a3.94,3.94,0,0,1-1.36.23,2.27,2.27,0,0,1-1.78-.69,3.54,3.54,0,0,1-.62-2.37q0-.43,0-.95l.13-2.24h-1.62l0-1.45h1.67l.1-1.75,2-.33,0,.18-.08.11a.76.76,0,0,0-.1.21,1.08,1.08,0,0,0,0,.29l-.12,1.29h2.3l0,1.45h-2.3l-.17,2.13q0,.55,0,.88a2.83,2.83,0,0,0,.24,1.39.83.83,0,0,0,.76.39,2.16,2.16,0,0,0,.9-.19,3.88,3.88,0,0,0,.91-.62Z"/><path class="cls-4" d="M118.25,347.2h1.93v.18a.43.43,0,0,0-.11.21,1.87,1.87,0,0,0,0,.38v3.33a3,3,0,0,1,.91-.68,2.56,2.56,0,0,1,2.91.5,3.48,3.48,0,0,1,.66,2.36V358h-1.81v-4.52a2.16,2.16,0,0,0-.29-1.23.91.91,0,0,0-.79-.41,1.48,1.48,0,0,0-.81.23,1.62,1.62,0,0,0-.58.65,2.08,2.08,0,0,0-.21.95V358h-1.8Z"/><path class="cls-4" d="M128,357.78a3.33,3.33,0,0,1-1.32-1.35,4.26,4.26,0,0,1-.48-2.07,4.67,4.67,0,0,1,.45-2.12,3.32,3.32,0,0,1,1.26-1.39,3.44,3.44,0,0,1,1.82-.49,3.18,3.18,0,0,1,1.62.42A2.93,2.93,0,0,1,132.5,352a4.32,4.32,0,0,1,.42,2c0,.13,0,.3,0,.53l0,.22H128a2.5,2.5,0,0,0,.64,1.54,1.71,1.71,0,0,0,1.25.52,2.49,2.49,0,0,0,1-.24,2.27,2.27,0,0,0,.86-.67l1,1a3.55,3.55,0,0,1-2.83,1.34A3.89,3.89,0,0,1,128,357.78Zm3.13-4.34a2.05,2.05,0,0,0-.18-.87,1.56,1.56,0,0,0-.52-.64,1.33,1.33,0,0,0-.79-.24,1.4,1.4,0,0,0-1.09.47,2.17,2.17,0,0,0-.52,1.27Z"/><path class="cls-4" d="M140.63,352.79h0a2,2,0,0,0-.64-.69,1.53,1.53,0,0,0-.8-.21,2,2,0,0,0-1,.27,1.87,1.87,0,0,0-.72.77,2.47,2.47,0,0,0-.26,1.16V358h-1.81v-7.47h1.84v1.07a2.16,2.16,0,0,1,.87-.91,2.54,2.54,0,0,1,1.29-.33,3.13,3.13,0,0,1,1.11.21,2.9,2.9,0,0,1,1,.61Zm-.23,0h0l.08,0,.09.05v0l-.16-.08Zm.23,0a.27.27,0,0,1,0,.11h0l-.08,0Z"/><path class="cls-4" d="M152.78,357.74a3.55,3.55,0,0,1-1.28-1.41,4.43,4.43,0,0,1-.47-2.06,4.14,4.14,0,0,1,.48-2,3.67,3.67,0,0,1,1.29-1.41,3.35,3.35,0,0,1,3.57,0,3.68,3.68,0,0,1,1.29,1.41,4.15,4.15,0,0,1,.48,2,4.43,4.43,0,0,1-.47,2.06,3.55,3.55,0,0,1-1.28,1.41,3.46,3.46,0,0,1-3.61,0Zm2.73-1.25a2,2,0,0,0,.61-.89,3.86,3.86,0,0,0,.21-1.33,3.71,3.71,0,0,0-.21-1.32,1.86,1.86,0,0,0-.61-.85,1.5,1.5,0,0,0-.93-.3,1.43,1.43,0,0,0-.89.3,1.91,1.91,0,0,0-.6.86,3.65,3.65,0,0,0-.21,1.32,3.93,3.93,0,0,0,.21,1.34,2,2,0,0,0,.59.89,1.4,1.4,0,0,0,.91.31A1.44,1.44,0,0,0,155.51,356.49Z"/><path class="cls-4" d="M159.85,350.53h1.8v.77a2.84,2.84,0,0,1,2.13-.93,2.11,2.11,0,0,1,1.7.75,3.6,3.6,0,0,1,.64,2.35V358h-1.8v-4.52a2,2,0,0,0-.31-1.24,1.09,1.09,0,0,0-.92-.4,1.69,1.69,0,0,0-.71.15,1.24,1.24,0,0,0-.53.46,1.34,1.34,0,0,0-.2.75V358h-1.8Z"/><path class="cls-4" d="M169.61,357.78a3.33,3.33,0,0,1-1.32-1.35,4.26,4.26,0,0,1-.48-2.07,4.68,4.68,0,0,1,.45-2.12,3.32,3.32,0,0,1,1.26-1.39,3.44,3.44,0,0,1,1.82-.49,3.18,3.18,0,0,1,1.62.42A2.93,2.93,0,0,1,174.1,352a4.32,4.32,0,0,1,.42,2c0,.13,0,.3,0,.53l0,.22h-4.9a2.51,2.51,0,0,0,.64,1.54,1.71,1.71,0,0,0,1.25.52,2.49,2.49,0,0,0,1-.24,2.26,2.26,0,0,0,.86-.67l1,1a3.55,3.55,0,0,1-2.83,1.34A3.89,3.89,0,0,1,169.61,357.78Zm3.13-4.34a2.05,2.05,0,0,0-.18-.87,1.55,1.55,0,0,0-.52-.64,1.33,1.33,0,0,0-.79-.24,1.4,1.4,0,0,0-1.09.47,2.18,2.18,0,0,0-.52,1.27Z"/><path class="cls-4" d="M178.73,358a1.16,1.16,0,0,1-.45-.42,1.08,1.08,0,0,1-.16-.58,1.06,1.06,0,0,1,.17-.57,1.24,1.24,0,0,1,.45-.43,1.21,1.21,0,0,1,.61-.16,1.25,1.25,0,0,1,.64.17,1.3,1.3,0,0,1,.46.44,1,1,0,0,1,.17.56,1,1,0,0,1-.18.57,1.27,1.27,0,0,1-.47.42,1.3,1.3,0,0,1-.62.16A1.28,1.28,0,0,1,178.73,358Zm-.47-9.21v-.19a1.46,1.46,0,0,1,.3-1,1.08,1.08,0,0,1,.83-.32,1.09,1.09,0,0,1,.82.31,1.39,1.39,0,0,1,.3,1c0,.09,0,.17,0,.22l-.41,6h-1.45Z"/></g></g></svg>